<?xml version="1.0" encoding="utf-8"?>
<!-- Generator: Adobe Illustrator 27.5.0, SVG Export Plug-In . SVG Version: 6.00 Build 0)  -->
<svg version="1.1" id="Capa_1" xmlns="http://www.w3.org/2000/svg" xmlns:xlink="http://www.w3.org/1999/xlink" x="0px" y="0px"
	 viewBox="0 0 324.3 254" style="enable-background:new 0 0 324.3 254;" xml:space="preserve">
<style type="text/css">
	.st0{enable-background:new    ;}
	.st1{fill:#F9F199;}
	.st2{fill:#FFFFFF;}
	.st3{fill:url(#SVGID_1_);}
	.st4{fill:url(#SVGID_00000181064931310427471270000009083985689400695457_);}
	.st5{fill:url(#SVGID_00000174584221898474979970000004557463490077072318_);}
	.st6{fill:url(#SVGID_00000154401364396463740220000008822485732672979608_);}
	.st7{fill:url(#SVGID_00000025429184134427438000000012954268722656543122_);}
	.st8{fill:url(#SVGID_00000163754336390376093660000007457059455461722553_);}
	.st9{fill:url(#SVGID_00000071542164788855709390000018046155057304676539_);}
	.st10{fill:url(#SVGID_00000150802532324124542760000006582123246299040675_);}
	.st11{fill:url(#SVGID_00000142160670466959597200000014168485363079009678_);}
	.st12{fill:url(#SVGID_00000018959381360024957070000005882609654212419465_);}
	.st13{fill:url(#SVGID_00000039092021649073340540000009489875145631995788_);}
</style>
<g class="st0">
	<path class="st1" d="M84.9,170.7v1c0,0.5-0.1,1-0.3,1.5c-0.2,0.5-0.5,0.9-0.8,1.2c-0.3,0.4-0.7,0.6-1.2,0.9s-1,0.3-1.5,0.3
		s-0.9-0.1-1.4-0.2s-0.9-0.3-1.3-0.7c-0.4-0.3-0.7-0.7-0.9-1.2c-0.2-0.5-0.4-1.1-0.4-1.9v-9.1c0-0.5,0.1-1,0.3-1.5
		c0.2-0.5,0.5-0.9,0.8-1.2s0.8-0.6,1.2-0.8s1-0.3,1.6-0.3c1.1,0,2,0.4,2.7,1.1c0.3,0.4,0.6,0.8,0.8,1.3s0.3,1,0.3,1.6v0.9h-2.4v-0.8
		c0-0.5-0.1-0.9-0.4-1.2s-0.6-0.5-1.1-0.5c-0.6,0-1,0.2-1.2,0.5s-0.3,0.8-0.3,1.4v8.5c0,0.5,0.1,0.9,0.3,1.2
		c0.2,0.3,0.6,0.5,1.1,0.5c0.2,0,0.3,0,0.5-0.1s0.3-0.1,0.5-0.3c0.1-0.1,0.3-0.3,0.4-0.5c0.1-0.2,0.1-0.5,0.1-0.8v-0.8L84.9,170.7
		L84.9,170.7z"/>
	<path class="st1" d="M86.8,175.5v-16.6h2.4v7.1h2.9v-7.1h2.4v16.6h-2.4v-7.4h-2.9v7.4H86.8z"/>
	<path class="st1" d="M96.8,175.5v-16.6h7.1v2.2h-4.7v4.9h4.1v2.2h-4.1v4.9h4.7v2.4L96.8,175.5L96.8,175.5z"/>
	<path class="st1" d="M113,170.7v1c0,0.5-0.1,1-0.3,1.5s-0.5,0.9-0.8,1.2c-0.3,0.4-0.7,0.6-1.2,0.9s-1,0.3-1.5,0.3s-0.9-0.1-1.4-0.2
		s-0.9-0.3-1.3-0.7c-0.4-0.3-0.7-0.7-0.9-1.2s-0.4-1.1-0.4-1.9v-9.1c0-0.5,0.1-1,0.3-1.5s0.5-0.9,0.8-1.2s0.8-0.6,1.2-0.8
		s1-0.3,1.6-0.3c1.1,0,2,0.4,2.7,1.1c0.3,0.4,0.6,0.8,0.8,1.3c0.2,0.5,0.3,1,0.3,1.6v0.9h-2.4v-0.8c0-0.5-0.1-0.9-0.4-1.2
		s-0.6-0.5-1.1-0.5c-0.6,0-1,0.2-1.2,0.5s-0.3,0.8-0.3,1.4v8.5c0,0.5,0.1,0.9,0.3,1.2s0.6,0.5,1.1,0.5c0.2,0,0.3,0,0.5-0.1
		s0.3-0.1,0.5-0.3c0.1-0.1,0.3-0.3,0.4-0.5c0.1-0.2,0.1-0.5,0.1-0.8v-0.8L113,170.7L113,170.7z"/>
	<path class="st1" d="M115,175.5v-16.6h2.4v7.6l0,0l3.5-7.6h2.4l-3.2,6.6l3.9,10h-2.5l-2.7-7.4l-1.3,2.4v5H115z"/>
	<path class="st1" d="M129.4,175.5v-16.6h2.4v16.6H129.4z"/>
	<path class="st1" d="M134,175.5v-16.6h2.3l3.6,10l0,0v-10h2.4v16.6h-2.2l-3.6-10l0,0v10H134z"/>
	<path class="st1" d="M144.3,170.2v-2.4h2.4v2.4H144.3z M144.3,175.5v-2.4h2.4v2.4H144.3z"/>
	<path class="st1" d="M155.6,175.5v-14.1l-2.4,1.7v-2.5l2.4-1.7h2.4v16.6H155.6z"/>
	<path class="st1" d="M161.5,163.2c0-0.5,0-0.8,0-1.2s0.1-0.6,0.2-0.8s0.2-0.4,0.3-0.6c0.1-0.2,0.2-0.4,0.4-0.6
		c0.3-0.4,0.7-0.7,1.2-0.9s1-0.3,1.5-0.3s1.1,0.1,1.5,0.3s0.9,0.5,1.2,0.9c0.2,0.2,0.3,0.4,0.4,0.6c0.1,0.2,0.2,0.4,0.3,0.6
		s0.1,0.5,0.2,0.8s0,0.7,0,1.2s0,0.9,0,1.3s-0.1,0.6-0.1,0.9s-0.2,0.5-0.4,0.7s-0.4,0.4-0.7,0.7c0.3,0.2,0.5,0.4,0.7,0.7
		s0.3,0.5,0.4,0.8s0.1,0.7,0.1,1.1c0,0.4,0,1,0,1.6c0,0.5,0,0.9,0,1.3s-0.1,0.6-0.1,0.9c0,0.2-0.1,0.5-0.2,0.6
		c-0.1,0.2-0.2,0.3-0.3,0.5c-0.3,0.4-0.6,0.8-1.1,1c-0.5,0.3-1.1,0.4-1.8,0.4s-1.3-0.1-1.8-0.4c-0.5-0.3-0.9-0.6-1.1-1
		c-0.1-0.2-0.2-0.4-0.3-0.5s-0.2-0.4-0.2-0.6c0-0.2-0.1-0.5-0.1-0.9s0-0.8,0-1.3c0-0.6,0-1.1,0-1.6c0-0.4,0.1-0.8,0.1-1.1
		s0.2-0.6,0.4-0.8s0.4-0.4,0.7-0.7c-0.3-0.2-0.5-0.5-0.7-0.7s-0.3-0.4-0.4-0.7s-0.1-0.6-0.1-0.9S161.5,163.7,161.5,163.2z
		 M166.2,162.3c0-0.3-0.1-0.6-0.4-0.8c-0.2-0.2-0.5-0.3-0.8-0.3s-0.6,0.1-0.8,0.3s-0.4,0.5-0.4,0.8v2.4c0,0.3,0.1,0.6,0.4,0.8
		c0.2,0.2,0.5,0.3,0.8,0.3s0.6-0.1,0.8-0.3s0.4-0.5,0.4-0.8V162.3z M166.2,168.8c0-0.3-0.1-0.6-0.4-0.8c-0.2-0.2-0.5-0.3-0.8-0.3
		s-0.6,0.1-0.8,0.3s-0.4,0.5-0.4,0.8v3.3c0,0.3,0.1,0.6,0.4,0.8c0.2,0.2,0.5,0.3,0.8,0.3s0.6-0.1,0.8-0.3s0.4-0.5,0.4-0.8V168.8z"/>
	<path class="st1" d="M170.4,170.2v-2.4h2.4v2.4H170.4z M170.4,175.5v-2.4h2.4v2.4H170.4z"/>
	<path class="st1" d="M177.4,165.9c0.7,0,1.2-0.1,1.5-0.3s0.4-0.6,0.4-1.2v-2.1c0-0.3-0.1-0.6-0.3-0.8s-0.5-0.3-0.9-0.3
		s-0.7,0.1-0.9,0.4c-0.2,0.3-0.3,0.5-0.3,0.8v1.4h-2.4v-1.4c0-0.5,0.1-0.9,0.3-1.4c0.2-0.4,0.4-0.8,0.8-1.1c0.3-0.3,0.7-0.6,1.1-0.7
		s0.9-0.3,1.4-0.3c0.7,0,1.2,0.1,1.6,0.4c0.4,0.3,0.8,0.5,1,0.8c0.2,0.2,0.3,0.4,0.4,0.6c0.1,0.2,0.2,0.4,0.3,0.7
		c0.1,0.5,0.2,1.3,0.2,2.3c0,0.6,0,1,0,1.4s-0.1,0.7-0.2,0.9c-0.1,0.2-0.3,0.5-0.5,0.6c-0.2,0.2-0.5,0.4-0.8,0.6
		c0.4,0.2,0.7,0.5,0.9,0.7s0.3,0.4,0.4,0.7c0.1,0.3,0.1,0.6,0.2,1s0,0.9,0,1.5c0,0.5,0,1,0,1.4s-0.1,0.7-0.1,0.9s-0.1,0.5-0.2,0.6
		s-0.2,0.3-0.3,0.5c-0.3,0.4-0.7,0.8-1.1,1.1c-0.5,0.3-1.1,0.4-1.8,0.4c-0.4,0-0.8-0.1-1.2-0.2s-0.8-0.3-1.1-0.6s-0.6-0.6-0.9-1.1
		c-0.2-0.5-0.3-1-0.3-1.7V171h2.4v1.2c0,0.4,0.1,0.7,0.3,0.9s0.5,0.4,0.9,0.4s0.6-0.1,0.9-0.4c0.2-0.2,0.3-0.6,0.3-1v-2.4
		c0-0.7-0.1-1.1-0.4-1.3c-0.1-0.1-0.3-0.2-0.6-0.2c-0.2,0-0.6,0-0.9,0L177.4,165.9L177.4,165.9z"/>
	<path class="st1" d="M183.2,162.3c0-0.6,0.1-1.1,0.3-1.5s0.5-0.8,0.8-1.1s0.7-0.5,1.1-0.7s0.9-0.2,1.3-0.2s0.9,0.1,1.3,0.2
		c0.4,0.2,0.8,0.4,1.1,0.7s0.6,0.7,0.8,1.1c0.2,0.4,0.3,0.9,0.3,1.5v9.7c0,0.6-0.1,1.1-0.3,1.5s-0.5,0.8-0.8,1.1s-0.7,0.5-1.1,0.7
		c-0.4,0.2-0.9,0.2-1.3,0.2s-0.9-0.1-1.3-0.2s-0.8-0.4-1.1-0.7s-0.6-0.7-0.8-1.1c-0.2-0.4-0.3-0.9-0.3-1.5V162.3z M185.6,172.1
		c0,0.3,0.1,0.6,0.3,0.9c0.2,0.2,0.5,0.3,0.8,0.3s0.6-0.1,0.8-0.3s0.3-0.5,0.3-0.9v-9.7c0-0.3-0.1-0.6-0.3-0.9
		c-0.2-0.2-0.5-0.3-0.8-0.3s-0.6,0.1-0.8,0.3s-0.3,0.5-0.3,0.9V172.1z"/>
	<path class="st1" d="M196.5,170.2v-2.4h7v2.4H196.5z"/>
	<path class="st1" d="M212.6,175.5v-14.1l-2.4,1.7v-2.5l2.4-1.7h2.4v16.6H212.6z"/>
	<path class="st1" d="M219.3,175.5l2.7-7l0,0c-0.1,0.1-0.2,0.1-0.4,0.2c-0.2,0-0.4,0.1-0.6,0.1c-0.4,0-0.8-0.1-1.2-0.3
		s-0.6-0.5-0.8-0.8c-0.1-0.2-0.2-0.3-0.3-0.5s-0.1-0.4-0.1-0.7s-0.1-0.6-0.1-1.1c0-0.4,0-1,0-1.6c0-0.5,0-1,0-1.3s0-0.6,0.1-0.9
		c0-0.2,0.1-0.4,0.2-0.6s0.2-0.3,0.3-0.5c0.3-0.5,0.7-0.9,1.3-1.2c0.5-0.3,1.1-0.4,1.8-0.4s1.2,0.1,1.8,0.4c0.5,0.3,0.9,0.7,1.2,1.2
		c0.1,0.2,0.2,0.4,0.3,0.5s0.1,0.4,0.2,0.6c0,0.2,0.1,0.5,0.1,0.9s0,0.8,0,1.3s0,0.9,0,1.3s0,0.6-0.1,0.9c0,0.2-0.1,0.5-0.2,0.7
		s-0.1,0.4-0.2,0.6l-3.1,8.3L219.3,175.5L219.3,175.5z M220.8,165.4c0,0.4,0.1,0.6,0.4,0.9c0.2,0.2,0.5,0.3,0.8,0.3s0.6-0.1,0.8-0.3
		s0.4-0.5,0.4-0.9v-3.1c0-0.4-0.1-0.6-0.4-0.9c-0.2-0.2-0.5-0.3-0.8-0.3s-0.6,0.1-0.8,0.3s-0.4,0.5-0.4,0.9V165.4z"/>
	<path class="st1" d="M227.3,170.2v-2.4h2.4v2.4H227.3z M227.3,175.5v-2.4h2.4v2.4H227.3z"/>
	<path class="st1" d="M231.5,162.3c0-0.6,0.1-1.1,0.3-1.5s0.5-0.8,0.8-1.1s0.7-0.5,1.1-0.7s0.9-0.2,1.3-0.2s0.9,0.1,1.3,0.2
		c0.4,0.2,0.8,0.4,1.1,0.7s0.6,0.7,0.8,1.1c0.2,0.4,0.3,0.9,0.3,1.5v9.7c0,0.6-0.1,1.1-0.3,1.5s-0.5,0.8-0.8,1.1s-0.7,0.5-1.1,0.7
		c-0.4,0.2-0.9,0.2-1.3,0.2s-0.9-0.1-1.3-0.2s-0.8-0.4-1.1-0.7s-0.6-0.7-0.8-1.1c-0.2-0.4-0.3-0.9-0.3-1.5V162.3z M233.9,172.1
		c0,0.3,0.1,0.6,0.3,0.9c0.2,0.2,0.5,0.3,0.8,0.3s0.6-0.1,0.8-0.3s0.3-0.5,0.3-0.9v-9.7c0-0.3-0.1-0.6-0.3-0.9
		c-0.2-0.2-0.5-0.3-0.8-0.3s-0.6,0.1-0.8,0.3s-0.3,0.5-0.3,0.9V172.1z"/>
	<path class="st1" d="M240.2,162.3c0-0.6,0.1-1.1,0.3-1.5s0.5-0.8,0.8-1.1s0.7-0.5,1.1-0.7s0.9-0.2,1.3-0.2s0.9,0.1,1.3,0.2
		c0.4,0.2,0.8,0.4,1.1,0.7s0.6,0.7,0.8,1.1c0.2,0.4,0.3,0.9,0.3,1.5v9.7c0,0.6-0.1,1.1-0.3,1.5s-0.5,0.8-0.8,1.1s-0.7,0.5-1.1,0.7
		c-0.4,0.2-0.9,0.2-1.3,0.2s-0.9-0.1-1.3-0.2s-0.8-0.4-1.1-0.7s-0.6-0.7-0.8-1.1c-0.2-0.4-0.3-0.9-0.3-1.5V162.3z M242.6,172.1
		c0,0.3,0.1,0.6,0.3,0.9c0.2,0.2,0.5,0.3,0.8,0.3s0.6-0.1,0.8-0.3s0.3-0.5,0.3-0.9v-9.7c0-0.3-0.1-0.6-0.3-0.9
		c-0.2-0.2-0.5-0.3-0.8-0.3s-0.6,0.1-0.8,0.3s-0.3,0.5-0.3,0.9V172.1z"/>
</g>
<g class="st0">
	<path class="st2" d="M16.9,130.9l-0.6-0.6h-1l-0.6,0.6v5.9l0.6,0.6h2.6l1.7,1.7v8.4l-1.7,1.7h-4.2l-1.7-1.7v-4.4h2.7v3.3l0.6,0.6
		h1.1l0.6-0.6v-6.2l-0.6-0.6h-2.6l-1.7-1.7v-8.2l1.7-1.7h4.1l1.7,1.7v4.4h-2.7V130.9z"/>
	<path class="st2" d="M21.9,128.1h6.5v2.3h-3.9v7h3.4v2.3h-3.4v7.2h3.9v2.3h-6.6L21.9,128.1L21.9,128.1z"/>
	<path class="st2" d="M38.5,129.8v17.7l-1.7,1.7h-6.2v-21h6.2L38.5,129.8z M35.8,146.3V131l-0.6-0.6h-2v16.5h2L35.8,146.3z"/>
	<path class="st2" d="M40.9,128.1h6.5v2.3h-3.9v7h3.4v2.3h-3.4v7.2h3.9v2.3h-6.6L40.9,128.1L40.9,128.1z"/>
	<path class="st2" d="M49.6,141.1v-3.6h2.8v3.6H49.6z M49.6,149.1v-3.6h2.8v3.6H49.6z"/>
	<path class="st2" d="M60,149.1v-21h2.7v18.7h3.5v2.3H60z"/>
	<path class="st2" d="M70.6,143.7l-0.5,5.4h-2.7l2.5-21h3.8l2.6,21h-2.8l-0.5-5.4H70.6z M71.8,130.8l-1,10.6h2L71.8,130.8z"/>
	<path class="st2" d="M87.4,149.1l-2.1-16.5v16.5h-2.4v-21h3.8l2,16.9l2-16.9h3.9v21h-2.5v-16.5l-2,16.5H87.4z"/>
	<path class="st2" d="M99.7,143.7l-0.5,5.4h-2.7l2.5-21h3.8l2.6,21h-2.8l-0.5-5.4H99.7z M100.9,130.8l-1,10.6h2L100.9,130.8z"/>
	<path class="st2" d="M107.2,128.1h2.9l3,14.5v-14.5h2.4v21h-2.9l-3-14.3v14.3h-2.4V128.1z"/>
	<path class="st2" d="M122.6,130.9l-0.6-0.6h-1l-0.6,0.6v5.9l0.6,0.6h2.6l1.7,1.7v8.4l-1.7,1.7h-4.2l-1.7-1.7v-4.4h2.7v3.3l0.6,0.6
		h1.1l0.6-0.6v-6.2l-0.6-0.6h-2.6l-1.7-1.7v-8.2l1.7-1.7h4.1l1.7,1.7v4.4h-2.7V130.9z"/>
	<path class="st2" d="M127.6,128.1h2.7v21h-2.7V128.1z"/>
	<path class="st2" d="M140.6,147.4l-1.7,1.7h-4.6l-1.7-1.7v-17.7l1.7-1.7h4.6l1.7,1.7V147.4z M136.9,126.6h-1.8l2-3.9h3.1
		L136.9,126.6z M135.9,130.4l-0.6,0.6v15.3l0.6,0.6h1.5l0.6-0.6V131l-0.6-0.6H135.9z"/>
	<path class="st2" d="M143,128.1h2.9l3,14.5v-14.5h2.4v21h-2.9l-3-14.3v14.3H143V128.1z"/>
	<path class="st2" d="M163.4,149.1l-2.1-16.5v16.5h-2.4v-21h3.8l2,16.9l2-16.9h3.9v21h-2.5v-16.5l-2.1,16.5H163.4z"/>
	<path class="st2" d="M175.7,143.7l-0.5,5.4h-2.7l2.5-21h3.8l2.6,21h-2.8l-0.5-5.4H175.7z M176.9,130.8l-1,10.6h2L176.9,130.8z"/>
	<path class="st2" d="M183.2,128.1h6.1l1.7,1.7v8.7l-1.5,1.5l1.7,9.1h-2.6l-1.6-8.9h-1.1v8.9h-2.7L183.2,128.1L183.2,128.1z
		 M188.4,137.4v-6.6l-0.6-0.6h-1.9v7.7h1.9L188.4,137.4z"/>
	<path class="st2" d="M193.6,128.1h6.1l1.7,1.7v8.7l-1.5,1.5l1.7,9.1H199l-1.6-8.9h-1.1v8.9h-2.7L193.6,128.1L193.6,128.1z
		 M198.7,137.4v-6.6l-0.6-0.6h-1.9v7.7h1.9L198.7,137.4z"/>
	<path class="st2" d="M203.9,128.1h2.7v21h-2.7V128.1z"/>
	<path class="st2" d="M216.9,147.4l-1.7,1.7h-4.6l-1.7-1.7v-17.7l1.7-1.7h4.6l1.7,1.7V147.4z M212.2,130.4l-0.6,0.6v15.3l0.6,0.6
		h1.5l0.6-0.6V131l-0.6-0.6H212.2z"/>
	<path class="st2" d="M223.8,130.3v18.8h-2.7v-18.8h-2.5v-2.2h7.7v2.2H223.8z"/>
	<path class="st2" d="M232.6,130.3v18.8h-2.7v-18.8h-2.5v-2.2h7.7v2.2H232.6z"/>
	<path class="st2" d="M241.8,128.1h6.1l1.7,1.7v8.7l-1.5,1.5l1.7,9.1h-2.6l-1.6-8.9h-1.1v8.9h-2.7L241.8,128.1L241.8,128.1z
		 M247,137.4v-6.6l-0.6-0.6h-1.9v7.7h1.9L247,137.4z"/>
	<path class="st2" d="M252.2,128.1h6.5v2.3h-3.9v7h3.4v2.3h-3.4v7.2h3.9v2.3h-6.6v-21.1H252.2z"/>
	<path class="st2" d="M267.3,130.4h-3.8v7.2h3.4v2.3h-3.4v9.2h-2.7v-21h6.5V130.4z"/>
	<path class="st2" d="M277.1,147.4l-1.7,1.7h-4.6l-1.7-1.7v-17.7l1.7-1.7h4.6l1.7,1.7V147.4z M272.4,130.4l-0.6,0.6v15.3l0.6,0.6
		h1.5l0.6-0.6V131l-0.6-0.6H272.4z"/>
	<path class="st2" d="M279.6,128.1h6.1l1.7,1.7v8.7l-1.5,1.5l1.7,9.1H285l-1.6-8.9h-1.1v8.9h-2.7V128.1z M284.7,137.4v-6.6l-0.6-0.6
		h-1.9v7.7h1.9L284.7,137.4z"/>
	<path class="st2" d="M294.4,149.1l-2.1-16.5v16.5h-2.4v-21h3.8l2,16.9l2-16.9h3.9v21h-2.5v-16.5l-2.1,16.5H294.4z"/>
	<path class="st2" d="M306.6,143.7l-0.5,5.4h-2.7l2.5-21h3.8l2.6,21h-2.8l-0.5-5.4H306.6z M307.8,130.8l-1,10.6h2L307.8,130.8z"/>
</g>
<linearGradient id="SVGID_1_" gradientUnits="userSpaceOnUse" x1="48.486" y1="138.579" x2="269.6197" y2="40.2532" gradientTransform="matrix(1 0 0 -1 0 182)">
	<stop  offset="0" style="stop-color:#C8A84F"/>
	<stop  offset="6.043150e-02" style="stop-color:#CEB25B"/>
	<stop  offset="0.2319" style="stop-color:#DFCB78"/>
	<stop  offset="0.3845" style="stop-color:#E8DB8B"/>
	<stop  offset="0.502" style="stop-color:#ECE192"/>
	<stop  offset="0.6209" style="stop-color:#E3D78B"/>
	<stop  offset="0.8015" style="stop-color:#CABE79"/>
	<stop  offset="1" style="stop-color:#A89B62"/>
</linearGradient>
<path class="st3" d="M67.7,72.5h-8l-6.8,26.2v4.9h9.6v12h5.2v-12h2.8V99h-2.8V72.5z M62.5,99h-5.2l5.2-21V99z M81.7,72.5v43.2h12.4
	l3.3-3.4V75.9l-3.3-3.4H81.7z M92.1,109.9L91,111h-4V77.1h4l1.1,1.1V109.9z M106.2,96.1h6.8v-4.7h-6.8V77.1h7.8v-4.7h-13v43.2h13.2
	V111h-7.9L106.2,96.1L106.2,96.1z M41.5,77.1h3.7v38.5h5.3V72.5h-9V77.1z M235.7,72.5l-3.3,3.4v36.4l3.3,3.4h8.6l3.3-3.4V75.9
	l-3.3-3.4H235.7z M242.4,109.9l-1.1,1.1h-2.5l-1.1-1.1V78.3l1.1-1.1h2.5l1.1,1.1V109.9z M254,72.5l-3.3,3.4v7.6h5.3v-5.2l1.1-1.1
	h1.7l1.1,1.1v12.4l-1.1,1.1H254l-3.3,3.4v20.5H265V111h-9V97.7l1.1-1.1h4.8l3.3-3.4V75.9l-3.3-3.4H254z M282.8,75.9l-3.3-3.4h-8.7
	l-3.3,3.4v8.5h5.3v-6.2l1.1-1.1h2.5l1.1,1.1v12l-1.1,1.1h-4.7v4.8h4.7l1.1,1.1V110l-1.1,1.1h-2.5l-1.1-1.1v-6.2h-5.3v8.5l3.3,3.4
	h8.6l3.3-3.4V97.2l-3.3-3.5l3.3-3.4V75.9H282.8z M218.6,72.5l-3.3,3.4v7.6h5.3v-5.2l1.1-1.1h1.7l1.1,1.1v12.4l-1.1,1.1h-4.8
	l-3.3,3.4v20.5h14.3V111h-9V97.7l1.1-1.1h4.8l3.3-3.4V75.9l-3.3-3.4H218.6z M148.1,109.9L147,111h-2.7l-1.1-1.1V72.5h-5.3v39.8
	l3.3,3.4h8.9l3.3-3.4V72.5h-5.3L148.1,109.9L148.1,109.9z M129.2,109.9l-1.1,1.1h-4.3v4.7h7.4l3.3-3.4V72.5h-5.3V109.9z
	 M168.8,102.4l-6.1-29.9H157v43.2h4.8V86.2l6.1,29.5h5.7V72.5h-4.8V102.4z M189.2,72.5l-3.3,3.4v36.4l3.3,3.4h9.2l3.3-3.4V75.9
	l-3.3-3.4H189.2z M196.4,109.9l-1.1,1.1h-3l-1.1-1.1V78.3l1.1-1.1h3l1.1,1.1V109.9z M177.2,115.7h5.3V72.5h-5.3V115.7z"/>
<g>
	<path class="st1" d="M74.5,201v-16.6h3.6c0.7,0,1.2,0.1,1.7,0.3c0.5,0.2,1,0.5,1.4,0.9c0.4,0.4,0.7,0.9,0.8,1.5
		c0.2,0.6,0.2,1.4,0.2,2.4c0,0.7,0,1.4-0.1,1.9c-0.1,0.5-0.3,1-0.5,1.4c-0.3,0.5-0.8,1-1.3,1.3c-0.5,0.3-1.3,0.5-2.2,0.5h-1.2v6.5
		H74.5z M76.9,186.6v5.6h1.1c0.5,0,0.9-0.1,1.1-0.2c0.3-0.1,0.5-0.3,0.6-0.6c0.1-0.2,0.2-0.5,0.2-0.9c0-0.3,0-0.7,0-1.1
		c0-0.4,0-0.8,0-1.1s-0.1-0.7-0.2-0.9c-0.1-0.3-0.3-0.5-0.6-0.6c-0.2-0.1-0.6-0.2-1.1-0.2H76.9z"/>
	<path class="st1" d="M83.9,188.3c0-0.7,0.1-1.3,0.4-1.8c0.2-0.5,0.5-0.9,0.9-1.3c0.4-0.3,0.8-0.6,1.3-0.7c0.5-0.2,1-0.3,1.4-0.3
		c0.5,0,1,0.1,1.4,0.3s0.9,0.4,1.3,0.7c0.4,0.3,0.7,0.8,0.9,1.3c0.2,0.5,0.4,1.1,0.4,1.8v8.8c0,0.7-0.1,1.3-0.4,1.8
		s-0.5,0.9-0.9,1.2c-0.4,0.3-0.8,0.6-1.3,0.8s-1,0.3-1.4,0.3c-0.5,0-1-0.1-1.4-0.3c-0.5-0.2-0.9-0.4-1.3-0.8
		c-0.4-0.3-0.7-0.7-0.9-1.2c-0.2-0.5-0.4-1.1-0.4-1.8V188.3z M86.3,197c0,0.6,0.2,1,0.5,1.3c0.3,0.3,0.7,0.4,1.1,0.4
		s0.8-0.1,1.1-0.4c0.3-0.3,0.5-0.7,0.5-1.3v-8.8c0-0.6-0.2-1-0.5-1.3c-0.3-0.3-0.7-0.4-1.1-0.4s-0.8,0.1-1.1,0.4
		c-0.3,0.3-0.5,0.7-0.5,1.3V197z"/>
	<path class="st1" d="M93.9,201v-16.6h2.3l3.6,10h0v-10h2.4V201H100l-3.6-10h0v10H93.9z"/>
	<path class="st1" d="M104.4,201v-16.6h7.1v2.2h-4.7v4.9h4.1v2.2h-4.1v4.9h4.7v2.4H104.4z"/>
	<path class="st1" d="M113,201v-16.6h2.3l3.6,10h0v-10h2.4V201H119l-3.6-10h0v10H113z"/>
	<path class="st1" d="M131,196.2v1c0,0.5-0.1,1-0.3,1.5c-0.2,0.5-0.5,0.9-0.8,1.2c-0.3,0.4-0.7,0.6-1.2,0.9c-0.5,0.2-1,0.3-1.5,0.3
		c-0.5,0-0.9-0.1-1.4-0.2s-0.9-0.3-1.3-0.7c-0.4-0.3-0.7-0.7-0.9-1.2c-0.2-0.5-0.4-1.1-0.4-1.9V188c0-0.5,0.1-1,0.3-1.5
		s0.5-0.9,0.8-1.2c0.3-0.3,0.8-0.6,1.2-0.8s1-0.3,1.6-0.3c1.1,0,2,0.4,2.7,1.1c0.3,0.4,0.6,0.8,0.8,1.3c0.2,0.5,0.3,1,0.3,1.6v0.9
		h-2.4v-0.8c0-0.5-0.1-0.9-0.4-1.2c-0.3-0.3-0.6-0.5-1.1-0.5c-0.6,0-1,0.2-1.2,0.5c-0.2,0.4-0.3,0.8-0.3,1.4v8.5
		c0,0.5,0.1,0.9,0.3,1.2c0.2,0.3,0.6,0.5,1.1,0.5c0.2,0,0.3,0,0.5-0.1c0.2-0.1,0.3-0.1,0.5-0.3c0.1-0.1,0.3-0.3,0.4-0.5
		c0.1-0.2,0.1-0.5,0.1-0.8v-0.8H131z"/>
	<path class="st1" d="M133,201v-16.6h2.4V201H133z"/>
	<path class="st1" d="M136.6,201l3.7-16.6h2l3.7,16.6h-2.4l-0.7-3.6h-3.2L139,201H136.6z M142.5,195.2l-1.2-6h0l-1.2,6H142.5z"/>
	<path class="st1" d="M147.1,195.7v-2.4h2.4v2.4H147.1z M147.1,201v-2.4h2.4v2.4H147.1z"/>
	<path class="st1" d="M158.4,201v-14.1l-2.4,1.7v-2.5l2.4-1.7h2.4V201H158.4z"/>
	<path class="st1" d="M165.2,201l2.7-7l0,0c-0.1,0.1-0.2,0.1-0.4,0.2c-0.2,0-0.4,0.1-0.6,0.1c-0.4,0-0.8-0.1-1.2-0.3
		c-0.4-0.2-0.6-0.5-0.8-0.8c-0.1-0.2-0.2-0.3-0.3-0.5c-0.1-0.2-0.1-0.4-0.1-0.7c0-0.3-0.1-0.6-0.1-1.1c0-0.4,0-1,0-1.6
		c0-0.5,0-1,0-1.3c0-0.4,0-0.6,0.1-0.9c0-0.2,0.1-0.4,0.2-0.6s0.2-0.4,0.3-0.5c0.3-0.5,0.7-0.9,1.3-1.2s1.1-0.4,1.8-0.4
		c0.7,0,1.2,0.1,1.8,0.4c0.5,0.3,0.9,0.7,1.2,1.2c0.1,0.2,0.2,0.4,0.3,0.5s0.1,0.4,0.2,0.6c0,0.2,0.1,0.5,0.1,0.9c0,0.3,0,0.8,0,1.3
		c0,0.5,0,0.9,0,1.3c0,0.3,0,0.6-0.1,0.9c0,0.2-0.1,0.5-0.2,0.7c-0.1,0.2-0.1,0.4-0.2,0.6l-3.1,8.3H165.2z M166.7,190.9
		c0,0.4,0.1,0.6,0.4,0.9c0.2,0.2,0.5,0.3,0.8,0.3c0.3,0,0.6-0.1,0.8-0.3c0.2-0.2,0.4-0.5,0.4-0.9v-3.1c0-0.4-0.1-0.6-0.4-0.9
		c-0.2-0.2-0.5-0.3-0.8-0.3c-0.3,0-0.6,0.1-0.8,0.3c-0.2,0.2-0.4,0.5-0.4,0.9V190.9z"/>
	<path class="st1" d="M173.2,195.7v-2.4h2.4v2.4H173.2z M173.2,201v-2.4h2.4v2.4H173.2z"/>
	<path class="st1" d="M177.3,187.8c0-0.6,0.1-1.1,0.3-1.5c0.2-0.4,0.5-0.8,0.8-1.1c0.3-0.3,0.7-0.5,1.1-0.7c0.4-0.2,0.9-0.2,1.3-0.2
		s0.9,0.1,1.3,0.2s0.8,0.4,1.1,0.7c0.3,0.3,0.6,0.7,0.8,1.1c0.2,0.4,0.3,0.9,0.3,1.5v9.7c0,0.6-0.1,1.1-0.3,1.5
		c-0.2,0.4-0.5,0.8-0.8,1.1c-0.3,0.3-0.7,0.5-1.1,0.7s-0.9,0.2-1.3,0.2s-0.9-0.1-1.3-0.2c-0.4-0.2-0.8-0.4-1.1-0.7s-0.6-0.7-0.8-1.1
		s-0.3-0.9-0.3-1.5V187.8z M179.7,197.5c0,0.3,0.1,0.6,0.3,0.9c0.2,0.2,0.5,0.3,0.8,0.3s0.6-0.1,0.8-0.3c0.2-0.2,0.3-0.5,0.3-0.9
		v-9.7c0-0.3-0.1-0.6-0.3-0.9c-0.2-0.2-0.5-0.3-0.8-0.3s-0.6,0.1-0.8,0.3c-0.2,0.2-0.3,0.5-0.3,0.9V197.5z"/>
	<path class="st1" d="M186,187.8c0-0.6,0.1-1.1,0.3-1.5c0.2-0.4,0.5-0.8,0.8-1.1c0.3-0.3,0.7-0.5,1.1-0.7c0.4-0.2,0.9-0.2,1.3-0.2
		s0.9,0.1,1.3,0.2s0.8,0.4,1.1,0.7c0.3,0.3,0.6,0.7,0.8,1.1c0.2,0.4,0.3,0.9,0.3,1.5v9.7c0,0.6-0.1,1.1-0.3,1.5
		c-0.2,0.4-0.5,0.8-0.8,1.1c-0.3,0.3-0.7,0.5-1.1,0.7s-0.9,0.2-1.3,0.2s-0.9-0.1-1.3-0.2c-0.4-0.2-0.8-0.4-1.1-0.7s-0.6-0.7-0.8-1.1
		s-0.3-0.9-0.3-1.5V187.8z M188.4,197.5c0,0.3,0.1,0.6,0.3,0.9c0.2,0.2,0.5,0.3,0.8,0.3s0.6-0.1,0.8-0.3c0.2-0.2,0.3-0.5,0.3-0.9
		v-9.7c0-0.3-0.1-0.6-0.3-0.9c-0.2-0.2-0.5-0.3-0.8-0.3s-0.6,0.1-0.8,0.3c-0.2,0.2-0.3,0.5-0.3,0.9V197.5z"/>
	<path class="st1" d="M199.3,195.7v-2.4h7v2.4H199.3z"/>
	<path class="st1" d="M212.5,201v-2.2l4.3-8.1c0.2-0.4,0.3-0.8,0.4-1.1s0-0.7,0-1.1c0-0.2,0-0.4,0-0.6s-0.1-0.4-0.1-0.6
		c-0.1-0.2-0.2-0.3-0.4-0.4c-0.2-0.1-0.4-0.2-0.7-0.2c-0.4,0-0.6,0.1-0.9,0.3c-0.2,0.2-0.3,0.5-0.3,0.9v1.4h-2.4v-1.3
		c0-0.5,0.1-1,0.3-1.4c0.2-0.4,0.4-0.8,0.8-1.1c0.3-0.3,0.7-0.6,1.1-0.8s0.9-0.3,1.4-0.3c0.6,0,1.2,0.1,1.6,0.3
		c0.4,0.2,0.8,0.5,1.1,0.9c0.3,0.4,0.5,0.8,0.6,1.3c0.1,0.5,0.2,1,0.2,1.6c0,0.4,0,0.7,0,1c0,0.3,0,0.5-0.1,0.8
		c0,0.2-0.1,0.5-0.2,0.7c-0.1,0.2-0.3,0.6-0.4,0.9l-3.5,6.7h4.3v2.4H212.5z"/>
	<path class="st1" d="M221.2,187.8c0-0.6,0.1-1.1,0.3-1.5c0.2-0.4,0.5-0.8,0.8-1.1c0.3-0.3,0.7-0.5,1.1-0.7s0.9-0.2,1.3-0.2
		s0.9,0.1,1.3,0.2c0.4,0.2,0.8,0.4,1.1,0.7c0.3,0.3,0.6,0.7,0.8,1.1c0.2,0.4,0.3,0.9,0.3,1.5v9.7c0,0.6-0.1,1.1-0.3,1.5
		c-0.2,0.4-0.5,0.8-0.8,1.1s-0.7,0.5-1.1,0.7c-0.4,0.2-0.9,0.2-1.3,0.2s-0.9-0.1-1.3-0.2s-0.8-0.4-1.1-0.7s-0.6-0.7-0.8-1.1
		c-0.2-0.4-0.3-0.9-0.3-1.5V187.8z M223.6,197.5c0,0.3,0.1,0.6,0.3,0.9c0.2,0.2,0.5,0.3,0.8,0.3s0.6-0.1,0.8-0.3
		c0.2-0.2,0.3-0.5,0.3-0.9v-9.7c0-0.3-0.1-0.6-0.3-0.9c-0.2-0.2-0.5-0.3-0.8-0.3s-0.6,0.1-0.8,0.3c-0.2,0.2-0.3,0.5-0.3,0.9V197.5z"
		/>
	<path class="st1" d="M230.1,195.7v-2.4h2.4v2.4H230.1z M230.1,201v-2.4h2.4v2.4H230.1z"/>
	<path class="st1" d="M234.3,187.8c0-0.6,0.1-1.1,0.3-1.5c0.2-0.4,0.5-0.8,0.8-1.1c0.3-0.3,0.7-0.5,1.1-0.7c0.4-0.2,0.9-0.2,1.3-0.2
		s0.9,0.1,1.3,0.2s0.8,0.4,1.1,0.7c0.3,0.3,0.6,0.7,0.8,1.1c0.2,0.4,0.3,0.9,0.3,1.5v9.7c0,0.6-0.1,1.1-0.3,1.5
		c-0.2,0.4-0.5,0.8-0.8,1.1c-0.3,0.3-0.7,0.5-1.1,0.7s-0.9,0.2-1.3,0.2s-0.9-0.1-1.3-0.2c-0.4-0.2-0.8-0.4-1.1-0.7s-0.6-0.7-0.8-1.1
		s-0.3-0.9-0.3-1.5V187.8z M236.7,197.5c0,0.3,0.1,0.6,0.3,0.9c0.2,0.2,0.5,0.3,0.8,0.3s0.6-0.1,0.8-0.3c0.2-0.2,0.3-0.5,0.3-0.9
		v-9.7c0-0.3-0.1-0.6-0.3-0.9c-0.2-0.2-0.5-0.3-0.8-0.3s-0.6,0.1-0.8,0.3c-0.2,0.2-0.3,0.5-0.3,0.9V197.5z"/>
	<path class="st1" d="M243,187.8c0-0.6,0.1-1.1,0.3-1.5c0.2-0.4,0.5-0.8,0.8-1.1c0.3-0.3,0.7-0.5,1.1-0.7c0.4-0.2,0.9-0.2,1.3-0.2
		s0.9,0.1,1.3,0.2s0.8,0.4,1.1,0.7c0.3,0.3,0.6,0.7,0.8,1.1c0.2,0.4,0.3,0.9,0.3,1.5v9.7c0,0.6-0.1,1.1-0.3,1.5
		c-0.2,0.4-0.5,0.8-0.8,1.1c-0.3,0.3-0.7,0.5-1.1,0.7s-0.9,0.2-1.3,0.2s-0.9-0.1-1.3-0.2c-0.4-0.2-0.8-0.4-1.1-0.7s-0.6-0.7-0.8-1.1
		s-0.3-0.9-0.3-1.5V187.8z M245.4,197.5c0,0.3,0.1,0.6,0.3,0.9c0.2,0.2,0.5,0.3,0.8,0.3s0.6-0.1,0.8-0.3c0.2-0.2,0.3-0.5,0.3-0.9
		v-9.7c0-0.3-0.1-0.6-0.3-0.9c-0.2-0.2-0.5-0.3-0.8-0.3s-0.6,0.1-0.8,0.3c-0.2,0.2-0.3,0.5-0.3,0.9V197.5z"/>
</g>
<g>
	<path class="st1" d="M91.4,222.2v1c0,0.5-0.1,1-0.3,1.5c-0.2,0.5-0.5,0.9-0.8,1.2c-0.3,0.4-0.7,0.6-1.2,0.9c-0.5,0.2-1,0.3-1.5,0.3
		c-0.5,0-0.9-0.1-1.4-0.2s-0.9-0.3-1.3-0.7c-0.4-0.3-0.7-0.7-0.9-1.2c-0.2-0.5-0.4-1.1-0.4-1.9V214c0-0.5,0.1-1,0.3-1.5
		s0.5-0.9,0.8-1.2c0.3-0.3,0.8-0.6,1.2-0.8s1-0.3,1.6-0.3c1.1,0,2,0.4,2.7,1.1c0.3,0.4,0.6,0.8,0.8,1.3c0.2,0.5,0.3,1,0.3,1.6v0.9
		H89v-0.8c0-0.5-0.1-0.9-0.4-1.2c-0.3-0.3-0.6-0.5-1.1-0.5c-0.6,0-1,0.2-1.2,0.5c-0.2,0.4-0.3,0.8-0.3,1.4v8.5
		c0,0.5,0.1,0.9,0.3,1.2c0.2,0.3,0.6,0.5,1.1,0.5c0.2,0,0.3,0,0.5-0.1c0.2-0.1,0.3-0.1,0.5-0.3c0.1-0.1,0.3-0.3,0.4-0.5
		c0.1-0.2,0.1-0.5,0.1-0.8v-0.8H91.4z"/>
	<path class="st1" d="M93.2,214.3c0-0.7,0.1-1.3,0.4-1.8c0.2-0.5,0.5-0.9,0.9-1.3c0.4-0.3,0.8-0.6,1.3-0.7c0.5-0.2,1-0.3,1.4-0.3
		c0.5,0,1,0.1,1.4,0.3s0.9,0.4,1.3,0.7c0.4,0.3,0.7,0.8,0.9,1.3c0.2,0.5,0.4,1.1,0.4,1.8v8.8c0,0.7-0.1,1.3-0.4,1.8
		s-0.5,0.9-0.9,1.2c-0.4,0.3-0.8,0.6-1.3,0.8s-1,0.3-1.4,0.3c-0.5,0-1-0.1-1.4-0.3c-0.5-0.2-0.9-0.4-1.3-0.8
		c-0.4-0.3-0.7-0.7-0.9-1.2c-0.2-0.5-0.4-1.1-0.4-1.8V214.3z M95.6,223c0,0.6,0.2,1,0.5,1.3c0.3,0.3,0.7,0.4,1.1,0.4
		s0.8-0.1,1.1-0.4c0.3-0.3,0.5-0.7,0.5-1.3v-8.8c0-0.6-0.2-1-0.5-1.3c-0.3-0.3-0.7-0.4-1.1-0.4s-0.8,0.1-1.1,0.4
		c-0.3,0.3-0.5,0.7-0.5,1.3V223z M95.7,209.6l2.1-3.3h2.5l-3.1,3.3H95.7z"/>
	<path class="st1" d="M110.9,222.2v1c0,0.5-0.1,1-0.3,1.5c-0.2,0.5-0.5,0.9-0.8,1.2c-0.3,0.4-0.7,0.6-1.2,0.9
		c-0.5,0.2-1,0.3-1.5,0.3c-0.5,0-0.9-0.1-1.4-0.2s-0.9-0.3-1.3-0.7c-0.4-0.3-0.7-0.7-0.9-1.2c-0.2-0.5-0.4-1.1-0.4-1.9V214
		c0-0.5,0.1-1,0.3-1.5s0.5-0.9,0.8-1.2c0.3-0.3,0.8-0.6,1.2-0.8s1-0.3,1.6-0.3c1.1,0,2,0.4,2.7,1.1c0.3,0.4,0.6,0.8,0.8,1.3
		c0.2,0.5,0.3,1,0.3,1.6v0.9h-2.4v-0.8c0-0.5-0.1-0.9-0.4-1.2c-0.3-0.3-0.6-0.5-1.1-0.5c-0.6,0-1,0.2-1.2,0.5
		c-0.2,0.4-0.3,0.8-0.3,1.4v8.5c0,0.5,0.1,0.9,0.3,1.2c0.2,0.3,0.6,0.5,1.1,0.5c0.2,0,0.3,0,0.5-0.1c0.2-0.1,0.3-0.1,0.5-0.3
		c0.1-0.1,0.3-0.3,0.4-0.5c0.1-0.2,0.1-0.5,0.1-0.8v-0.8H110.9z"/>
	<path class="st1" d="M114.4,226.9v-14.4h-2.8v-2.2h7.9v2.2h-2.8v14.4H114.4z"/>
	<path class="st1" d="M120.6,226.9v-16.6h7.1v2.2H123v4.9h4.1v2.2H123v4.9h4.7v2.4H120.6z"/>
	<path class="st1" d="M129.3,226.9v-16.6h2.4v14.2h4.7v2.4H129.3z"/>
	<path class="st1" d="M137.8,221.6v-2.4h2.4v2.4H137.8z M137.8,226.9v-2.4h2.4v2.4H137.8z"/>
	<path class="st1" d="M146.3,226.9v-2.2l4.3-8.1c0.2-0.4,0.3-0.8,0.4-1.1c0-0.3,0-0.7,0-1.1c0-0.2,0-0.4,0-0.6
		c0-0.2-0.1-0.4-0.1-0.6c-0.1-0.2-0.2-0.3-0.4-0.4c-0.2-0.1-0.4-0.2-0.7-0.2c-0.4,0-0.6,0.1-0.9,0.3c-0.2,0.2-0.3,0.5-0.3,0.9v1.4
		h-2.4v-1.3c0-0.5,0.1-1,0.3-1.4c0.2-0.4,0.4-0.8,0.8-1.1c0.3-0.3,0.7-0.6,1.1-0.8c0.4-0.2,0.9-0.3,1.4-0.3c0.6,0,1.2,0.1,1.6,0.3
		c0.4,0.2,0.8,0.5,1.1,0.9c0.3,0.4,0.5,0.8,0.6,1.3c0.1,0.5,0.2,1,0.2,1.6c0,0.4,0,0.7,0,1c0,0.3,0,0.5-0.1,0.8
		c0,0.2-0.1,0.5-0.2,0.7c-0.1,0.2-0.3,0.6-0.4,0.9l-3.5,6.7h4.3v2.4H146.3z"/>
	<path class="st1" d="M155,213.8c0-0.6,0.1-1.1,0.3-1.5c0.2-0.4,0.5-0.8,0.8-1.1c0.3-0.3,0.7-0.5,1.1-0.7c0.4-0.2,0.9-0.2,1.3-0.2
		s0.9,0.1,1.3,0.2c0.4,0.2,0.8,0.4,1.1,0.7c0.3,0.3,0.6,0.7,0.8,1.1c0.2,0.4,0.3,0.9,0.3,1.5v9.7c0,0.6-0.1,1.1-0.3,1.5
		c-0.2,0.4-0.5,0.8-0.8,1.1c-0.3,0.3-0.7,0.5-1.1,0.7c-0.4,0.2-0.9,0.2-1.3,0.2s-0.9-0.1-1.3-0.2c-0.4-0.2-0.8-0.4-1.1-0.7
		s-0.6-0.7-0.8-1.1c-0.2-0.4-0.3-0.9-0.3-1.5V213.8z M157.4,223.5c0,0.3,0.1,0.6,0.3,0.9c0.2,0.2,0.5,0.3,0.8,0.3s0.6-0.1,0.8-0.3
		c0.2-0.2,0.3-0.5,0.3-0.9v-9.7c0-0.3-0.1-0.6-0.3-0.9c-0.2-0.2-0.5-0.3-0.8-0.3s-0.6,0.1-0.8,0.3c-0.2,0.2-0.3,0.5-0.3,0.9V223.5z"
		/>
	<path class="st1" d="M163.9,221.6v-2.4h2.4v2.4H163.9z M163.9,226.9v-2.4h2.4v2.4H163.9z"/>
	<path class="st1" d="M168,213.8c0-0.6,0.1-1.1,0.3-1.5c0.2-0.4,0.5-0.8,0.8-1.1c0.3-0.3,0.7-0.5,1.1-0.7c0.4-0.2,0.9-0.2,1.3-0.2
		s0.9,0.1,1.3,0.2s0.8,0.4,1.1,0.7c0.3,0.3,0.6,0.7,0.8,1.1c0.2,0.4,0.3,0.9,0.3,1.5v9.7c0,0.6-0.1,1.1-0.3,1.5
		c-0.2,0.4-0.5,0.8-0.8,1.1c-0.3,0.3-0.7,0.5-1.1,0.7s-0.9,0.2-1.3,0.2s-0.9-0.1-1.3-0.2c-0.4-0.2-0.8-0.4-1.1-0.7s-0.6-0.7-0.8-1.1
		s-0.3-0.9-0.3-1.5V213.8z M170.4,223.5c0,0.3,0.1,0.6,0.3,0.9c0.2,0.2,0.5,0.3,0.8,0.3s0.6-0.1,0.8-0.3c0.2-0.2,0.3-0.5,0.3-0.9
		v-9.7c0-0.3-0.1-0.6-0.3-0.9c-0.2-0.2-0.5-0.3-0.8-0.3s-0.6,0.1-0.8,0.3c-0.2,0.2-0.3,0.5-0.3,0.9V223.5z"/>
	<path class="st1" d="M176.7,213.8c0-0.6,0.1-1.1,0.3-1.5c0.2-0.4,0.5-0.8,0.8-1.1c0.3-0.3,0.7-0.5,1.1-0.7c0.4-0.2,0.9-0.2,1.3-0.2
		s0.9,0.1,1.3,0.2s0.8,0.4,1.1,0.7c0.3,0.3,0.6,0.7,0.8,1.1c0.2,0.4,0.3,0.9,0.3,1.5v9.7c0,0.6-0.1,1.1-0.3,1.5
		c-0.2,0.4-0.5,0.8-0.8,1.1c-0.3,0.3-0.7,0.5-1.1,0.7s-0.9,0.2-1.3,0.2s-0.9-0.1-1.3-0.2c-0.4-0.2-0.8-0.4-1.1-0.7s-0.6-0.7-0.8-1.1
		s-0.3-0.9-0.3-1.5V213.8z M179.1,223.5c0,0.3,0.1,0.6,0.3,0.9c0.2,0.2,0.5,0.3,0.8,0.3s0.6-0.1,0.8-0.3c0.2-0.2,0.3-0.5,0.3-0.9
		v-9.7c0-0.3-0.1-0.6-0.3-0.9c-0.2-0.2-0.5-0.3-0.8-0.3s-0.6,0.1-0.8,0.3c-0.2,0.2-0.3,0.5-0.3,0.9V223.5z"/>
	<path class="st1" d="M190,221.7v-2.4h7v2.4H190z"/>
	<path class="st1" d="M203.2,226.9v-2.2l4.3-8.1c0.2-0.4,0.3-0.8,0.4-1.1s0-0.7,0-1.1c0-0.2,0-0.4,0-0.6s-0.1-0.4-0.1-0.6
		c-0.1-0.2-0.2-0.3-0.4-0.4c-0.2-0.1-0.4-0.2-0.7-0.2c-0.4,0-0.6,0.1-0.9,0.3c-0.2,0.2-0.3,0.5-0.3,0.9v1.4h-2.4v-1.3
		c0-0.5,0.1-1,0.3-1.4c0.2-0.4,0.4-0.8,0.8-1.1c0.3-0.3,0.7-0.6,1.1-0.8s0.9-0.3,1.4-0.3c0.6,0,1.2,0.1,1.6,0.3
		c0.4,0.2,0.8,0.5,1.1,0.9c0.3,0.4,0.5,0.8,0.6,1.3c0.1,0.5,0.2,1,0.2,1.6c0,0.4,0,0.7,0,1c0,0.3,0,0.5-0.1,0.8
		c0,0.2-0.1,0.5-0.2,0.7c-0.1,0.2-0.3,0.6-0.4,0.9l-3.5,6.7h4.3v2.4H203.2z"/>
	<path class="st1" d="M214.7,217.3c0.7,0,1.2-0.1,1.5-0.3c0.3-0.2,0.4-0.6,0.4-1.2v-2.1c0-0.3-0.1-0.6-0.3-0.8
		c-0.2-0.2-0.5-0.3-0.9-0.3c-0.4,0-0.7,0.1-0.9,0.4c-0.2,0.3-0.3,0.5-0.3,0.8v1.4h-2.4v-1.4c0-0.5,0.1-0.9,0.3-1.4
		c0.2-0.4,0.4-0.8,0.8-1.1s0.7-0.6,1.1-0.7s0.9-0.3,1.4-0.3c0.7,0,1.2,0.1,1.6,0.4c0.4,0.3,0.8,0.5,1,0.8c0.2,0.2,0.3,0.4,0.4,0.6
		c0.1,0.2,0.2,0.4,0.3,0.7c0.1,0.5,0.2,1.3,0.2,2.3c0,0.6,0,1,0,1.4s-0.1,0.7-0.2,0.9c-0.1,0.2-0.3,0.5-0.5,0.6
		c-0.2,0.2-0.5,0.4-0.8,0.6c0.4,0.2,0.7,0.5,0.9,0.7c0.2,0.2,0.3,0.4,0.4,0.7c0.1,0.3,0.1,0.6,0.2,1s0,0.9,0,1.5c0,0.5,0,1,0,1.4
		s-0.1,0.7-0.1,0.9c0,0.2-0.1,0.5-0.2,0.6s-0.2,0.3-0.3,0.5c-0.3,0.4-0.7,0.8-1.1,1.1c-0.5,0.3-1.1,0.4-1.8,0.4
		c-0.4,0-0.8-0.1-1.2-0.2s-0.8-0.3-1.1-0.6s-0.6-0.6-0.9-1.1c-0.2-0.5-0.3-1-0.3-1.7v-1.4h2.4v1.2c0,0.4,0.1,0.7,0.3,0.9
		c0.2,0.2,0.5,0.4,0.9,0.4c0.4,0,0.6-0.1,0.9-0.4c0.2-0.2,0.3-0.6,0.3-1V221c0-0.7-0.1-1.1-0.4-1.3c-0.1-0.1-0.3-0.2-0.6-0.2
		c-0.2,0-0.6,0-0.9,0V217.3z"/>
	<path class="st1" d="M220.8,221.6v-2.4h2.4v2.4H220.8z M220.8,226.9v-2.4h2.4v2.4H220.8z"/>
	<path class="st1" d="M225,213.8c0-0.6,0.1-1.1,0.3-1.5c0.2-0.4,0.5-0.8,0.8-1.1c0.3-0.3,0.7-0.5,1.1-0.7c0.4-0.2,0.9-0.2,1.3-0.2
		s0.9,0.1,1.3,0.2s0.8,0.4,1.1,0.7c0.3,0.3,0.6,0.7,0.8,1.1c0.2,0.4,0.3,0.9,0.3,1.5v9.7c0,0.6-0.1,1.1-0.3,1.5
		c-0.2,0.4-0.5,0.8-0.8,1.1c-0.3,0.3-0.7,0.5-1.1,0.7s-0.9,0.2-1.3,0.2s-0.9-0.1-1.3-0.2c-0.4-0.2-0.8-0.4-1.1-0.7s-0.6-0.7-0.8-1.1
		s-0.3-0.9-0.3-1.5V213.8z M227.4,223.5c0,0.3,0.1,0.6,0.3,0.9c0.2,0.2,0.5,0.3,0.8,0.3s0.6-0.1,0.8-0.3c0.2-0.2,0.3-0.5,0.3-0.9
		v-9.7c0-0.3-0.1-0.6-0.3-0.9c-0.2-0.2-0.5-0.3-0.8-0.3s-0.6,0.1-0.8,0.3c-0.2,0.2-0.3,0.5-0.3,0.9V223.5z"/>
	<path class="st1" d="M233.7,213.8c0-0.6,0.1-1.1,0.3-1.5c0.2-0.4,0.5-0.8,0.8-1.1c0.3-0.3,0.7-0.5,1.1-0.7c0.4-0.2,0.9-0.2,1.3-0.2
		s0.9,0.1,1.3,0.2s0.8,0.4,1.1,0.7c0.3,0.3,0.6,0.7,0.8,1.1c0.2,0.4,0.3,0.9,0.3,1.5v9.7c0,0.6-0.1,1.1-0.3,1.5
		c-0.2,0.4-0.5,0.8-0.8,1.1c-0.3,0.3-0.7,0.5-1.1,0.7s-0.9,0.2-1.3,0.2s-0.9-0.1-1.3-0.2c-0.4-0.2-0.8-0.4-1.1-0.7s-0.6-0.7-0.8-1.1
		s-0.3-0.9-0.3-1.5V213.8z M236,223.5c0,0.3,0.1,0.6,0.3,0.9c0.2,0.2,0.5,0.3,0.8,0.3s0.6-0.1,0.8-0.3c0.2-0.2,0.3-0.5,0.3-0.9v-9.7
		c0-0.3-0.1-0.6-0.3-0.9c-0.2-0.2-0.5-0.3-0.8-0.3s-0.6,0.1-0.8,0.3c-0.2,0.2-0.3,0.5-0.3,0.9V223.5z"/>
</g>
<g class="st0">
	<path class="st2" d="M99.3,236.2l1.1-1.1h2.3v1.6h-1.2l-0.4,0.4v12.5l0.4,0.4h1.2v1.6h-2.3l-1.1-1.1V236.2z"/>
	<path class="st2" d="M103.4,237.2l1.1-1.1h2.8l1.1,1.1v3.2h-1.8V238l-0.4-0.4h-0.7l-0.4,0.4v10.6l0.4,0.4h0.7l0.4-0.4v-2.5h1.8v3.3
		l-1.1,1.1h-2.8l-1.1-1.1V237.2z"/>
	<path class="st2" d="M111.2,246.8l-0.4,3.7H109l1.7-14.4h2.6l1.8,14.4h-1.9l-0.4-3.7H111.2z M112,237.9l-0.7,7.3h1.4L112,237.9z"/>
	<path class="st2" d="M116,236.1h2l2.1,10v-10h1.7v14.4h-2l-2.1-9.9v9.9H116V236.1z"/>
	<path class="st2" d="M124.7,246.8l-0.4,3.7h-1.8l1.7-14.4h2.6l1.8,14.4h-1.9l-0.4-3.7H124.7z M125.5,237.9l-0.7,7.3h1.4
		L125.5,237.9z"/>
	<path class="st2" d="M129.4,236.1h4.1l1.1,1.1v6.4l-1.1,1.1h-2.3v5.8h-1.8V236.1z M132.9,242.8V238l-0.4-0.4h-1.2v5.6h1.2
		L132.9,242.8z"/>
	<path class="st2" d="M135.7,236.1h4.5v1.6h-2.7v4.8h2.3v1.6h-2.3v5h2.7v1.6h-4.6V236.1z M138.1,235h-1.3l1.4-2.7h2.1L138.1,235z"/>
	<path class="st2" d="M144.2,238l-0.4-0.4h-0.7l-0.4,0.4v4.1l0.4,0.4h1.8l1.1,1.1v5.8l-1.1,1.1h-2.9l-1.1-1.1v-3h1.8v2.3l0.4,0.4
		h0.8l0.4-0.4v-4.3l-0.4-0.4h-1.8l-1.1-1.1v-5.6l1.1-1.1h2.8l1.1,1.1v3h-1.8V238z"/>
	<path class="st2" d="M151.8,250.5v-4.7l-2.2-9.7h2l1.1,7.1l1.1-7.1h2l-2.2,9.7v4.7H151.8z"/>
	<path class="st2" d="M164.8,237.2v4.8l-1.1,1.1l1.1,1.1v5.1l-1.1,1.1h-4.2v-14.4h4.2L164.8,237.2z M163,242V238l-0.4-0.4h-1.3v4.8
		h1.3L163,242z M161.3,243.9v5h1.3l0.4-0.4v-4.3l-0.4-0.4H161.3z"/>
	<path class="st2" d="M167.6,246.8l-0.4,3.7h-1.8l1.7-14.4h2.6l1.8,14.4h-1.9l-0.4-3.7H167.6z M168.4,237.9l-0.7,7.3h1.4
		L168.4,237.9z"/>
	<path class="st2" d="M172.4,236.1h4.2l1.1,1.1v6l-1,1l1.1,6.3h-1.8l-1.1-6.2h-0.8v6.2h-1.8V236.1z M175.9,242.5V238l-0.4-0.4h-1.3
		v5.3h1.3L175.9,242.5z"/>
	<path class="st2" d="M179,236.1h4.2l1.1,1.1v6l-1,1l1.1,6.3h-1.8l-1.1-6.2h-0.8v6.2H179V236.1z M182.6,242.5V238l-0.4-0.4h-1.3v5.3
		h1.3L182.6,242.5z"/>
	<path class="st2" d="M187.4,246.8l-0.4,3.7h-1.8l1.7-14.4h2.6l1.8,14.4h-1.9l-0.4-3.7H187.4z M188.3,237.9l-0.7,7.3h1.4
		L188.3,237.9z"/>
	<path class="st2" d="M195,250.5v-14.4h1.8v12.9h2.4v1.6H195z"/>
	<path class="st2" d="M200.1,236.1h1.8v14.4h-1.8V236.1z"/>
	<path class="st2" d="M208.6,237.2v4.8l-1.1,1.1l1.1,1.1v5.1l-1.1,1.1h-4.2v-14.4h4.2L208.6,237.2z M206.7,242V238l-0.4-0.4H205v4.8
		h1.3L206.7,242z M205,243.9v5h1.3l0.4-0.4v-4.3l-0.4-0.4H205z"/>
	<path class="st2" d="M209.7,236.1h4.2l1.1,1.1v6l-1,1l1.1,6.3h-1.8l-1.1-6.2h-0.8v6.2h-1.8V236.1z M213.3,242.5V238l-0.4-0.4h-1.3
		v5.3h1.3L213.3,242.5z"/>
	<path class="st2" d="M216.4,236.1h4.5v1.6h-2.7v4.8h2.3v1.6h-2.3v5h2.7v1.6h-4.6V236.1z"/>
	<path class="st2" d="M221.6,251.5v-1.6h1.2l0.4-0.4V237l-0.4-0.4h-1.2v-1.6h2.3l1.1,1.1v14.1l-1.1,1.1H221.6z"/>
</g>
<g>
	
		<linearGradient id="SVGID_00000093862836596836221360000005273616657795443882_" gradientUnits="userSpaceOnUse" x1="79.133" y1="45.1335" x2="115.3559" y2="29.0272">
		<stop  offset="0" style="stop-color:#C8A84F"/>
		<stop  offset="6.043150e-02" style="stop-color:#CEB25B"/>
		<stop  offset="0.2319" style="stop-color:#DFCB78"/>
		<stop  offset="0.3845" style="stop-color:#E8DB8B"/>
		<stop  offset="0.502" style="stop-color:#ECE192"/>
		<stop  offset="0.6209" style="stop-color:#E3D78B"/>
		<stop  offset="0.8015" style="stop-color:#CABE79"/>
		<stop  offset="1" style="stop-color:#A89B62"/>
	</linearGradient>
	<polygon style="fill:url(#SVGID_00000093862836596836221360000005273616657795443882_);" points="104.2,24.6 104.2,58.5 
		109.2,58.5 109.2,15.3 101.4,15.3 97.5,50.2 93.6,15.3 86,15.3 86,58.5 90.8,58.5 90.8,24.6 94.9,58.5 100.1,58.5 	"/>
	<g>
		
			<linearGradient id="SVGID_00000052083241074639429740000016669303888970391479_" gradientUnits="userSpaceOnUse" x1="168.0843" y1="43.1097" x2="195.4039" y2="30.9622">
			<stop  offset="0" style="stop-color:#C8A84F"/>
			<stop  offset="6.043150e-02" style="stop-color:#CEB25B"/>
			<stop  offset="0.2319" style="stop-color:#DFCB78"/>
			<stop  offset="0.3845" style="stop-color:#E8DB8B"/>
			<stop  offset="0.502" style="stop-color:#ECE192"/>
			<stop  offset="0.6209" style="stop-color:#E3D78B"/>
			<stop  offset="0.8015" style="stop-color:#CABE79"/>
			<stop  offset="1" style="stop-color:#A89B62"/>
		</linearGradient>
		<path style="fill:url(#SVGID_00000052083241074639429740000016669303888970391479_);" d="M186.6,15.3h-9.2l-3.3,3.4v36.4l3.3,3.4
			h9.2l3.3-3.4V18.7L186.6,15.3z M184.7,52.7l-1.1,1.1h-3l-1.1-1.1V21.1l1.1-1.1h3l1.1,1.1V52.7z"/>
	</g>
	<g>
		
			<linearGradient id="SVGID_00000004548143154032125140000009561300087205497226_" gradientUnits="userSpaceOnUse" x1="130.4071" y1="43.6999" x2="158.7618" y2="31.0921">
			<stop  offset="0" style="stop-color:#C8A84F"/>
			<stop  offset="6.043150e-02" style="stop-color:#CEB25B"/>
			<stop  offset="0.2319" style="stop-color:#DFCB78"/>
			<stop  offset="0.3845" style="stop-color:#E8DB8B"/>
			<stop  offset="0.502" style="stop-color:#ECE192"/>
			<stop  offset="0.6209" style="stop-color:#E3D78B"/>
			<stop  offset="0.8015" style="stop-color:#CABE79"/>
			<stop  offset="1" style="stop-color:#A89B62"/>
		</linearGradient>
		<path style="fill:url(#SVGID_00000004548143154032125140000009561300087205497226_);" d="M150.3,39.7l2.9-3v-18l-3.3-3.4h-12.2
			v43.2h5.3V40.1h2.3l3.2,18.4h5.1L150.3,39.7z M148,34.5l-1.1,1.1H143V19.9h3.9L148,21V34.5z"/>
	</g>
	
		<linearGradient id="SVGID_00000055698984686099628930000005370414061512918656_" gradientUnits="userSpaceOnUse" x1="185.9765" y1="42.9576" x2="206.9102" y2="33.6495">
		<stop  offset="0" style="stop-color:#C8A84F"/>
		<stop  offset="6.043150e-02" style="stop-color:#CEB25B"/>
		<stop  offset="0.2319" style="stop-color:#DFCB78"/>
		<stop  offset="0.3845" style="stop-color:#E8DB8B"/>
		<stop  offset="0.502" style="stop-color:#ECE192"/>
		<stop  offset="0.6209" style="stop-color:#E3D78B"/>
		<stop  offset="0.8015" style="stop-color:#CABE79"/>
		<stop  offset="1" style="stop-color:#A89B62"/>
	</linearGradient>
	<polygon style="fill:url(#SVGID_00000055698984686099628930000005370414061512918656_);" points="205.8,53.8 198.8,53.8 
		198.8,15.3 193.4,15.3 193.4,58.5 205.8,58.5 	"/>
	
		<linearGradient id="SVGID_00000048462647860909875240000004756259798708402313_" gradientUnits="userSpaceOnUse" x1="124.1223" y1="10.3689" x2="135.7874" y2="5.182">
		<stop  offset="0" style="stop-color:#C8A84F"/>
		<stop  offset="6.043150e-02" style="stop-color:#CEB25B"/>
		<stop  offset="0.2319" style="stop-color:#DFCB78"/>
		<stop  offset="0.3845" style="stop-color:#E8DB8B"/>
		<stop  offset="0.502" style="stop-color:#ECE192"/>
		<stop  offset="0.6209" style="stop-color:#E3D78B"/>
		<stop  offset="0.8015" style="stop-color:#CABE79"/>
		<stop  offset="1" style="stop-color:#A89B62"/>
	</linearGradient>
	<polygon style="fill:url(#SVGID_00000048462647860909875240000004756259798708402313_);" points="135.4,4.2 129.2,4.2 125.2,12.2 
		128.9,12.2 	"/>
	
		<linearGradient id="SVGID_00000075126779437509021270000007102844502659014845_" gradientUnits="userSpaceOnUse" x1="114.3032" y1="43.1903" x2="141.8138" y2="30.9579">
		<stop  offset="0" style="stop-color:#C8A84F"/>
		<stop  offset="6.043150e-02" style="stop-color:#CEB25B"/>
		<stop  offset="0.2319" style="stop-color:#DFCB78"/>
		<stop  offset="0.3845" style="stop-color:#E8DB8B"/>
		<stop  offset="0.502" style="stop-color:#ECE192"/>
		<stop  offset="0.6209" style="stop-color:#E3D78B"/>
		<stop  offset="0.8015" style="stop-color:#CABE79"/>
		<stop  offset="1" style="stop-color:#A89B62"/>
	</linearGradient>
	<polygon style="fill:url(#SVGID_00000075126779437509021270000007102844502659014845_);" points="134.9,53.8 127,53.8 127,39 
		133.8,39 133.8,34.3 127,34.3 127,20 134.8,20 134.8,15.3 121.8,15.3 121.8,58.5 135,58.5 135,53.8 	"/>
	
		<linearGradient id="SVGID_00000098911599826079881500000016532960764979462574_" gradientUnits="userSpaceOnUse" x1="150.5146" y1="42.8962" x2="176.8947" y2="31.1665">
		<stop  offset="0" style="stop-color:#C8A84F"/>
		<stop  offset="6.043150e-02" style="stop-color:#CEB25B"/>
		<stop  offset="0.2319" style="stop-color:#DFCB78"/>
		<stop  offset="0.3845" style="stop-color:#E8DB8B"/>
		<stop  offset="0.502" style="stop-color:#ECE192"/>
		<stop  offset="0.6209" style="stop-color:#E3D78B"/>
		<stop  offset="0.8015" style="stop-color:#CABE79"/>
		<stop  offset="1" style="stop-color:#A89B62"/>
	</linearGradient>
	<polygon style="fill:url(#SVGID_00000098911599826079881500000016532960764979462574_);" points="159.9,15.3 156.6,18.7 
		156.6,55.1 159.9,58.5 168.1,58.5 171.4,55.1 171.4,45.3 166.1,45.3 166.1,52.7 164.9,53.8 162.9,53.8 161.8,52.7 161.8,21 
		162.9,19.9 164.9,19.9 166.1,21 166.1,28.4 171.4,28.4 171.4,18.7 168.1,15.3 	"/>
	
		<linearGradient id="SVGID_00000078033848076876807170000014910800834866101923_" gradientUnits="userSpaceOnUse" x1="217.1782" y1="42.8346" x2="243.4823" y2="31.1386">
		<stop  offset="0" style="stop-color:#C8A84F"/>
		<stop  offset="6.043150e-02" style="stop-color:#CEB25B"/>
		<stop  offset="0.2319" style="stop-color:#DFCB78"/>
		<stop  offset="0.3845" style="stop-color:#E8DB8B"/>
		<stop  offset="0.502" style="stop-color:#ECE192"/>
		<stop  offset="0.6209" style="stop-color:#E3D78B"/>
		<stop  offset="0.8015" style="stop-color:#CABE79"/>
		<stop  offset="1" style="stop-color:#A89B62"/>
	</linearGradient>
	<polygon style="fill:url(#SVGID_00000078033848076876807170000014910800834866101923_);" points="238.1,37.7 234.8,34.3 
		229.6,34.3 228.5,33.2 228.5,21 229.6,19.9 231.5,19.9 232.6,21 232.6,27.8 237.9,27.8 237.9,18.7 234.6,15.3 226.5,15.3 
		223.2,18.7 223.2,35.5 226.5,38.9 231.7,38.9 232.8,40 232.8,52.7 231.7,53.8 229.5,53.8 228.4,52.7 228.4,45.9 223.2,45.9 
		223.2,54.9 226.6,58.3 234.9,58.3 238.2,54.9 238.2,37.7 	"/>
	
		<linearGradient id="SVGID_00000145058556400584126870000009279232480965398455_" gradientUnits="userSpaceOnUse" x1="104.7987" y1="41.6583" x2="125.7325" y2="32.3502">
		<stop  offset="0" style="stop-color:#C8A84F"/>
		<stop  offset="6.043150e-02" style="stop-color:#CEB25B"/>
		<stop  offset="0.2319" style="stop-color:#DFCB78"/>
		<stop  offset="0.3845" style="stop-color:#E8DB8B"/>
		<stop  offset="0.502" style="stop-color:#ECE192"/>
		<stop  offset="0.6209" style="stop-color:#E3D78B"/>
		<stop  offset="0.8015" style="stop-color:#CABE79"/>
		<stop  offset="1" style="stop-color:#A89B62"/>
	</linearGradient>
	
		<rect x="112.8" y="15.3" style="fill:url(#SVGID_00000145058556400584126870000009279232480965398455_);" width="5.3" height="43.2"/>
	
		<linearGradient id="SVGID_00000152974803515192693230000005373136573272073127_" gradientUnits="userSpaceOnUse" x1="200.5949" y1="43.1717" x2="228.1055" y2="30.9393">
		<stop  offset="0" style="stop-color:#C8A84F"/>
		<stop  offset="6.043150e-02" style="stop-color:#CEB25B"/>
		<stop  offset="0.2319" style="stop-color:#DFCB78"/>
		<stop  offset="0.3845" style="stop-color:#E8DB8B"/>
		<stop  offset="0.502" style="stop-color:#ECE192"/>
		<stop  offset="0.6209" style="stop-color:#E3D78B"/>
		<stop  offset="0.8015" style="stop-color:#CABE79"/>
		<stop  offset="1" style="stop-color:#A89B62"/>
	</linearGradient>
	<polygon style="fill:url(#SVGID_00000152974803515192693230000005373136573272073127_);" points="221.2,53.8 213.4,53.8 213.4,39 
		220.2,39 220.2,34.3 213.4,34.3 213.4,20 221.2,20 221.2,15.3 208.2,15.3 208.2,58.5 221.2,58.5 	"/>
</g>
</svg>
