<?xml version="1.0" encoding="utf-8"?>
<!-- Generator: Adobe Illustrator 27.5.0, SVG Export Plug-In . SVG Version: 6.00 Build 0)  -->
<svg version="1.1" xmlns="http://www.w3.org/2000/svg" xmlns:xlink="http://www.w3.org/1999/xlink" x="0px" y="0px"
	 viewBox="0 0 798.5 287.2" style="enable-background:new 0 0 798.5 287.2;" xml:space="preserve">
<style type="text/css">
	.st0{display:none;}
	.st1{display:inline;fill:#FFFFFF;}
	.st2{fill:#FFFFFF;}
	.st3{fill:none;}
	.st4{fill:none;stroke:#FFFFFF;stroke-width:2.6934;stroke-miterlimit:10;}
	.st5{display:inline;fill:none;stroke:#000000;stroke-miterlimit:10;}
</style>
<g id="White_BG" class="st0">
	<rect x="-133" y="-28.1" class="st1" width="300" height="300"/>
	<rect x="-95.7" y="853.1" class="st1" width="95.4" height="95.4"/>
	<rect x="146.3" y="853.1" class="st1" width="95.4" height="95.4"/>
	<rect x="239" y="-28.1" class="st1" width="300" height="300"/>
	<rect x="-133" y="343.9" class="st1" width="400" height="400"/>
	<rect x="339" y="343.9" class="st1" width="400" height="400"/>
</g>
<g id="Logo">
	<g>
		<path class="st2" d="M363.2,119V70h31.8v3.5h-28.4v19.3h22.1v3.5h-22.1v19.2h28.4v3.5H363.2z"/>
		<path class="st2" d="M427.5,111.4L446,70h3.8l-22.3,49.8L405.2,70h3.7L427.5,111.4z"/>
		<path class="st2" d="M459.4,106.5l-5.8,12.4h-3.8l23.1-49.6l21.8,49.6H491l-5.5-12.4H459.4z M472.7,77.7L461,103.2h23L472.7,77.7z
			"/>
		<path class="st2" d="M502.5,66.9h25l1.9,7.1h-18.9v15h13.6v6.8h-13.6v22.9l-8,0.6V66.9z"/>
		<path class="st2" d="M531,67.2l7.1-0.6v52.1l-7.1,0.6V67.2z"/>
		<path class="st2" d="M557.9,90.5c8.5,0,14.8,7,14.8,14.7c0,7.7-6.4,14.7-14.8,14.7c-8.4,0-14.8-7-14.8-14.7
			C543.1,97.5,549.5,90.5,557.9,90.5z M565.6,105.2c0-4.8-3.3-8.2-7.7-8.2c-4.3,0-7.7,3.4-7.7,8.2s3.4,8.2,7.7,8.2
			C562.3,113.3,565.6,109.9,565.6,105.2z"/>
		<path class="st2" d="M574.5,91.4l7.1-0.9l5.2,15l6.4-14.5h3.2l6.4,14.2l5.2-14.8l7.1,0.9l-9.9,27.6h-3.2l-7.2-15l-7.2,15h-3.2
			L574.5,91.4z"/>
		<path class="st2" d="M648.8,102.9c0-4.1-1.6-5.4-4.1-5.4c-2.5,0-4.2,1.8-4.2,6.1v15l-7.1,0.6v-16.3c0-4.1-1.6-5.4-4.1-5.4
			c-2.5,0-4.2,1.8-4.2,6.1v15l-7.1,0.6V91.6l6.8-0.6v3.4h0.1c1-2.3,4.1-4,7-4c3.2,0,5.3,1.4,7.1,4.3c2-3,4.1-4.3,7.9-4.3
			c5.5,0,9,3.4,9,9.1v19.1l-7.1,0.6V102.9z"/>
		<path class="st2" d="M676.8,100.3c0-2.1-1.2-3.2-5.5-3.2c-2.1,0-4.3,0.5-6.8,0.9l2-6.5c2.2-0.3,4.4-0.5,6.3-0.5
			c7.6,0,10.9,1.9,10.9,7v20.6l-6.5,0.6v-3h-0.1c-0.9,2.5-3.5,3.5-6.9,3.5c-5.8,0-9.2-4-9.2-10.1c0-6.2,4.6-9.9,9.4-9.9
			c2.6,0,4.8,0.7,6.5,2.5V100.3z M672.3,113.8c2.7,0,4.4-1.3,4.4-3.9c0-2.1-1.7-3.5-4.4-3.5c-2.7,0-4.4,1.4-4.4,3.5
			C667.9,112.5,669.7,113.8,672.3,113.8z"/>
		<path class="st2" d="M703.4,100c-1.2-2.9-2.8-3.8-4.3-3.8s-2.8,0.7-2.8,2.4c0,5.2,11.8,1.2,11.8,11.6c0,5.6-4.7,9.7-10.5,9.7
			c-3.1,0-5.9-1-8.5-3.8l4.1-4.8c1.1,1.4,2.9,2.9,4.9,2.9c1.7,0,3.2-1,3.2-3c0-5.1-11.8-2.4-11.8-11.4c0-5.1,3.9-9.3,9.4-9.3
			c3.7,0,7,2.6,8.8,5.6L703.4,100z"/>
		<path class="st2" d="M711.5,91.4h2.7v-8.8l7.1-3.5v12.2h5.8v6.5h-5.8v9.8c0,3.8,1.9,5.1,4.8,5.1h1v6.5h-1.5
			c-6.7,0-11.4-2.6-11.4-9.2V97.9h-2.7V91.4z"/>
		<path class="st2" d="M739.6,111c1.4,1.8,3.4,2.8,5.8,2.8c3,0,5.4-1.3,8.1-4.3l2.6,6.1c-3,3.1-6.7,4.3-10.9,4.3
			c-8.5,0-14.8-5.7-14.8-15.2c0-8.8,7.2-14.2,14.3-14.2c6.4,0,10.3,3,13.4,8.5L739.6,111z M749.4,98.1c-1.6-1.1-3.3-1.5-5.1-1.5
			c-2.7,0-7,2.7-7,7.7c0,0.4,0.1,1.1,0.3,1.6L749.4,98.1z"/>
		<path class="st2" d="M768.3,91.1v2.8h0.1c1.6-2.1,4.3-3.4,7.8-3.4v7.1h-1.6c-4.8,0-6.4,2.2-6.4,6.8v14.3l-7.1,0.6V91.6L768.3,91.1
			z"/>
	</g>
	<g>
		<path class="st2" d="M363.2,219.2v-49h31.8v3.5h-28.4V193h22.1v3.5h-22.1v19.2h28.4v3.5H363.2z"/>
		<path class="st2" d="M427.5,211.6l18.6-41.4h3.8L427.5,220l-22.2-49.8h3.7L427.5,211.6z"/>
		<path class="st2" d="M459.4,206.8l-5.8,12.4h-3.8l23.1-49.6l21.8,49.6H491l-5.5-12.4H459.4z M472.7,178L461,203.4h23L472.7,178z"
			/>
		<path class="st2" d="M527.2,179.4c-2.9-3.9-5.9-6.5-9.8-6.5c-4.4,0-8,3-8,7.7c0,11.1,23.1,5.9,23.1,23.9c0,8.8-6.9,15.9-16.3,15.9
			c-6.7,0-11.9-3.2-15.7-8.8l5.6-5.6c2.7,4.3,6.3,7.2,10.3,7.2c4.6,0,8-3.8,8-8.3c0-11.9-23.1-5.6-23.1-24.2c0-8.6,7.1-15,16.1-15
			c6.7,0,11.2,3.5,14.7,8.3L527.2,179.4z"/>
		<path class="st2" d="M537.7,178h7.1v7.4h-7.1V178z M537.7,191.9l7.1-0.6v27.6l-7.1,0.6V191.9z"/>
		<path class="st2" d="M554.3,220.4c1.8,3.4,4.4,5,7.1,5c3.5,0,5.9-2.5,5.9-5.6c0-3.7-3.5-5.9-6.8-5.9c-2.5,0-5.1,1.3-7.2,2.9
			l1.6-5.1c-3.4-1.7-5.3-5.4-5.3-8.9c0-8.4,6.4-12,12.5-12c1.4,0,2.8,0.2,4.2,0.4c1.4,0.2,2.8,0.4,4.2,0.4c1.8,0,3.6-0.1,5.4-0.3
			l-0.9,4.6h-2.5c1.5,1.6,2.5,4.3,2.5,6.5c0,3.3-1.2,6.3-4.6,8.8c2.9,2.7,4.1,5.5,4.1,8.4c0,7.3-5.9,11.9-13.4,11.9
			c-4.3,0-8.1-1.8-10.9-5.8L554.3,220.4z M562.1,207.8c3.3,0,5.7-1.9,5.7-5.4c0-3.3-2.4-5.2-5.7-5.2c-3.4,0-5.8,1.9-5.8,5.2
			C556.3,205.9,558.7,207.8,562.1,207.8z"/>
		<path class="st2" d="M580.5,191.9l7.1-0.6v3.5h0.1c1.7-3.2,4.3-4.1,7-4.1c4.9,0,9,3.2,9,8.5v19.7l-7.1,0.6v-16
			c0-3.8-1.7-5.7-4.5-5.7s-4.6,2.6-4.6,6.3v14.8l-7.1,0.6V191.9z"/>
	</g>
	<g>
		<path class="st3" d="M195.1,104.1c-1.9-8.5-5.4-16.3-10.8-23.2c-9.4-11.9-22.1-18.4-36.8-21.4c-7.7-1.5-15.5-2-23.4-1.7
			c-11.1,0.4-21.7,2.9-31.6,8.2c-7.1,3.7-13,8.9-18.6,14.6c-2.5,2.5-4.5,5.7-6.4,8.7c-5,8.2-7.7,17.1-8.9,26.6
			c-0.3,2.5-0.2,2.3,2,2.3c22.4,0,44.7,0,67.1,0c8.6,0,17.1,0,25.7,0c13.9,0,27.9,0,41.8,0c1.9,0,2,0,1.7-1.9
			C196.5,112.2,196,108.1,195.1,104.1z"/>
		<path class="st2" d="M239.1,138.7c0-12.5-1.5-24.8-4.6-36.9c-2.5-9.7-6.2-18.9-11.2-27.5c-7-12-16.1-22.2-27.4-30.3
			c-14.4-10.4-30.7-15.9-48.2-18.1c-9.9-1.2-19.8-1.3-29.8-0.6c-15.4,1.1-29.8,5.3-43.6,12.1c-5.8,2.8-11.1,6.4-16.1,10.4
			c-6.2,4.9-11.8,10.5-16.9,16.6C35.3,71.9,30.2,80.1,26.2,89c-6.8,15.1-9.8,31-10.4,47.5c-0.3,8.8,0,17.6,1.2,26.4
			c1.8,13.6,5.3,26.6,11.5,38.9c5.8,11.8,13.5,22.1,23.1,31.1c7.6,7,15.8,13,25.2,17.5c11.7,5.6,23.9,9.2,36.7,10.9
			c8.7,1.1,17.5,1.4,26.3,1c9.7-0.5,19.2-1.8,28.5-4.4c10.9-3,21.2-7.5,30.8-13.6c16.1-10.4,28.5-24.4,38.2-40.8
			c0.6-0.9,0.2-1.3-0.6-1.8c-9.1-5.8-18.1-11.7-27.2-17.6c-1.4-0.9-1.4-0.9-2.3,0.5c-6.8,11.3-14.9,21.5-25.2,29.8
			c-7.3,5.8-15.4,10.3-24.3,13.1c-8.8,2.8-17.9,3.8-27.1,3.4c-10.6-0.4-20.8-2.5-30.5-7c-11.3-5.3-20.3-13.4-27.7-23.3
			c-5.3-7-8.6-15-10.8-23.4c-2.4-8.8-3-17.8-3.2-26.8c0-1.2,0.3-1.6,1.5-1.6c5.2,0.1,10.3,0.1,15.5,0.1c24.4,0,48.9,0,73.3,0v0
			c21.4,0,42.9,0,64.3,0c8.2,0,16.4,0,24.5,0c1.6,0,1.6-0.1,1.6-1.7C239.1,144.2,239.1,141.5,239.1,138.7z M58.6,125.2h2.9l4.8,12.1
			l4.9-12.1h2.9L66.2,144L58.6,125.2z M86.9,142.7l-1.8-4.2h-7.5l-1.9,4.2h-2.8l8.6-18.6l8.3,18.6H86.9z M107.3,143.8l-12.7-13.3
			v12.2H92V124l12.7,13.3v-12.1h2.6V143.8z M127.9,134.2c0,1.3-0.2,2.5-0.5,3.5c-0.3,0.9-0.8,1.8-1.5,2.6c-1.6,1.8-3.7,2.7-6.2,2.7
			c-2.4,0-4.5-0.9-6.3-2.6c-1.7-1.8-2.6-3.9-2.6-6.4c0-2.5,0.9-4.7,2.7-6.5c1.8-1.8,3.9-2.7,6.5-2.7c1.4,0,2.6,0.3,3.8,0.8
			c1.1,0.6,2.2,1.5,3.3,2.7l-1.9,1.8c-1.4-1.9-3.2-2.9-5.2-2.9c-1.8,0-3.4,0.6-4.7,1.9c-1.3,1.3-1.9,2.8-1.9,4.7
			c0,1.9,0.7,3.6,2.1,4.8c1.3,1.2,2.7,1.8,4.2,1.8c1.3,0,2.5-0.4,3.5-1.3c1-0.9,1.6-1.9,1.7-3.2h-4.4v-2.5h7.2V134.2z M140.9,127.7
			h-7v4.2h6.8v2.5h-6.8v5.8h7v2.5h-9.6v-17.5h9.6V127.7z M152.4,142.7h-7.8v-17.5h2.6v15h5.1V142.7z M158.5,142.7h-2.6v-17.5h2.6
			V142.7z M175.1,136.5c0,1.8-0.6,3.4-1.7,4.5c-1.3,1.3-2.9,2-4.8,2s-3.5-0.7-4.7-2c-1.1-1.2-1.7-2.7-1.7-4.5v-11.3h2.6v10.5
			c0,1.5,0.2,2.6,0.7,3.3c0.7,1,1.8,1.5,3.1,1.5c1.3,0,2.4-0.5,3.1-1.5c0.5-0.7,0.7-1.8,0.7-3.3v-10.5h2.6V136.5z M194.5,142.7
			l-1.7-10.5l-5.2,11.4l-5-11.4l-1.9,10.6H178l3.7-18.8l6,13.6l6.2-13.6l3.3,18.8H194.5z M195.3,118.2c-13.9,0-27.9,0-41.8,0
			c-8.6,0-17.1,0-25.7,0c-22.4,0-44.7,0-67.1,0c-2.2,0-2.3,0.2-2-2.3c1.2-9.4,3.9-18.4,8.9-26.6c1.9-3.1,3.9-6.2,6.4-8.7
			c5.5-5.6,11.5-10.8,18.6-14.6c9.9-5.2,20.5-7.8,31.6-8.2c7.8-0.3,15.7,0.1,23.4,1.7c14.7,2.9,27.3,9.4,36.8,21.4
			c5.4,6.9,8.9,14.7,10.8,23.2c0.9,4,1.4,8.1,2,12.2C197.3,118.2,197.3,118.2,195.3,118.2z"/>
		<polygon class="st2" points="78.7,136 84,136 81.4,130 		"/>
	</g>
	<line class="st4" x1="303.9" y1="58.7" x2="303.9" y2="230.5"/>
</g>
<g id="Circle_Safe_Area" class="st0">
	<circle class="st5" cx="67" cy="543.9" r="200"/>
	<circle class="st5" cx="539" cy="543.9" r="200"/>
	<ellipse class="st5" cx="86" cy="1106.9" rx="49" ry="49.1"/>
	<ellipse class="st5" cx="-84" cy="1106.9" rx="49" ry="49.1"/>
</g>
</svg>
