<?xml version="1.0" encoding="utf-8"?>
<!-- Generator: Adobe Illustrator 27.5.0, SVG Export Plug-In . SVG Version: 6.00 Build 0)  -->
<svg version="1.1" xmlns="http://www.w3.org/2000/svg" xmlns:xlink="http://www.w3.org/1999/xlink" x="0px" y="0px"
	 viewBox="0 0 287.2 287.2" style="enable-background:new 0 0 287.2 287.2;" xml:space="preserve">
<style type="text/css">
	.st0{display:none;}
	.st1{display:inline;fill:#FFFFFF;}
	.st2{fill:#FFFFFF;}
	.st3{display:inline;fill:none;stroke:#000000;stroke-miterlimit:10;}
</style>
<g id="White_BG" class="st0">
	<rect x="-133" y="-28.1" class="st1" width="300" height="300"/>
	<rect x="-95.7" y="853.1" class="st1" width="95.4" height="95.4"/>
	<rect x="146.3" y="853.1" class="st1" width="95.4" height="95.4"/>
	<rect x="239" y="-28.1" class="st1" width="300" height="300"/>
	<rect x="-133" y="343.9" class="st1" width="400" height="400"/>
	<rect x="339" y="343.9" class="st1" width="400" height="400"/>
</g>
<g id="Logo">
	<g>
		<path class="st2" d="M69.6,95.4c0-9.9,1.8-19.2,5.5-27.7c3.7-8.6,8.7-16,15.2-22.4c6.5-6.4,14.3-11.4,23.3-15
			c9-3.6,19-5.4,29.9-5.4c10.8,0,20.7,1.8,29.8,5.4c9.1,3.6,16.9,8.6,23.5,15c6.6,6.4,11.7,13.9,15.3,22.4
			c3.7,8.6,5.5,17.8,5.5,27.7s-1.8,19.2-5.5,27.7c-3.7,8.6-8.8,16-15.3,22.4c-6.6,6.4-14.4,11.4-23.5,15c-9.1,3.6-19,5.4-29.8,5.4
			c-10.9,0-20.8-1.8-29.9-5.4c-9-3.6-16.8-8.6-23.3-15c-6.5-6.4-11.6-13.9-15.2-22.4C71.4,114.6,69.6,105.4,69.6,95.4z M105.9,95.4
			c0,5.3,1,10.2,3,14.7c2,4.5,4.7,8.4,8.2,11.7s7.4,5.9,12,7.7c4.5,1.8,9.4,2.7,14.4,2.7s9.9-0.9,14.4-2.7c4.5-1.8,8.6-4.4,12.1-7.7
			c3.5-3.3,6.2-7.2,8.2-11.7c2-4.5,3-9.4,3-14.7s-1-10.2-3-14.7c-2-4.5-4.8-8.4-8.2-11.7c-3.5-3.3-7.5-5.9-12.1-7.7
			c-4.5-1.8-9.4-2.7-14.4-2.7s-9.9,0.9-14.4,2.7c-4.6,1.8-8.5,4.4-12,7.7c-3.4,3.3-6.1,7.2-8.2,11.7
			C106.9,85.2,105.9,90.1,105.9,95.4z"/>
	</g>
	<g>
		<g>
			<path class="st2" d="M14.8,227.6c0-13.3,8.7-22.7,21.4-22.7c12.7,0,21.2,9.2,21.2,22.5s-8.6,22.6-21.3,22.6
				S14.8,240.9,14.8,227.6z M52.1,227.6c0-10.7-6.5-18.2-16.1-18.2c-9.5,0-16.1,7.4-16.1,18.2c0,10.7,6.6,18.1,16.1,18.1
				C45.7,245.7,52.1,238.4,52.1,227.6z"/>
			<path class="st2" d="M92.8,230.4v16.9c0,1.8-0.9,2.3-2.1,2.3h-0.6c-1.3,0-2.2-0.5-2.2-2.3v-16.5c0-6.2-3-10.1-8.4-10.1
				c-4.7,0-8.2,2.6-10,6.5v20c0,1.8-0.9,2.3-2.1,2.3h-0.6c-1.3,0-2.2-0.5-2.2-2.3v-29.8c0-0.1,0.8-0.5,1.8-0.5c1.5,0,2.8,0.7,3,4
				v1.9c2.2-3.8,5.9-6.4,11.1-6.4C88.8,216.4,92.8,222.2,92.8,230.4z"/>
			<path class="st2" d="M115.1,216.4c9,0,14.8,6.3,14.8,15.9v0.5c0,1.1-0.5,1.6-1.7,1.6h-24.4c0,0.3,0,0.6,0.1,0.9
				c0.6,6.5,5.3,10.8,11.7,10.8c6,0,8.8-2.8,10.5-5.9c0.3-0.1,2.8,0.4,2.8,2.6c0,1-0.8,2.6-2.6,4c-2,1.8-5.7,3.4-10.7,3.4
				c-9.8,0-16.4-6.8-16.4-16.7C99.2,223.7,105.8,216.4,115.1,216.4z M115.1,220.3c-5.9,0-10.3,4.3-11.1,10.5h21.1
				C124.8,224.5,120.9,220.3,115.1,220.3z"/>
			<path class="st2" d="M134.5,241.4c0-1.8,2.2-3,2.4-2.8c2,3.7,6.3,7.3,13.1,7.3c6.4,0,10.4-3,10.4-8c0-5.6-5.4-6.9-11.5-8.4
				c-6.7-1.7-13.3-3.9-13.3-12.3c0-7.1,6.2-12.1,14.7-12.1c5.7,0,9.8,1.8,12.1,3.9c1.3,1.3,2.1,2.7,2.1,3.8c0,2-2.4,3.1-2.5,2.9
				c-1.9-3.4-5.9-6.4-11.7-6.4c-5.7,0-9.8,3-9.8,7.8c0,5.3,4.6,6.4,10.9,8c7.1,1.7,14,4.3,14,12.7c0,7.6-6,12.5-15.3,12.5
				c-6.4,0-11-2.1-13.5-4.6C135.2,244.1,134.5,242.5,134.5,241.4z"/>
			<path class="st2" d="M203.8,233.2c0,10.1-6.3,16.9-15,16.9c-5.9,0-9.9-3.2-11.6-6.7v16.7c0,1.7-0.9,2.3-2.1,2.3h-0.5
				c-1.3,0-2.2-0.6-2.2-2.3v-42.6c0-0.1,0.7-0.5,1.7-0.5c1.4,0,2.8,0.8,3,3.6c0,0.8,0.1,1.9,0.1,2.8c2.4-4.2,6.2-6.9,11.8-6.9
				C197.4,216.4,203.8,223.1,203.8,233.2z M199,233.2c0-7.5-4.7-12.7-10.9-12.7c-5.4,0-9.1,3.1-10.9,7.8v7.1
				c0,5.9,4.9,10.5,10.8,10.5C194.5,246,199,240.9,199,233.2z"/>
			<path class="st2" d="M230.4,230.5h0.7v-1.3c0-5.5-3.2-8.5-8.7-8.5c-5.1,0-8.2,2.5-9.8,5.7c-0.1,0.1-3-0.1-3-2.5
				c0-0.9,0.7-2.4,2-3.6c2.1-2,5.8-3.8,11.1-3.8c8.6,0,13.2,4.8,13.2,12.7v19.9c0,0.2-0.9,0.5-1.8,0.5c-1.4,0-2.6-0.7-2.8-3.1
				c-0.1-0.9-0.1-2-0.1-3c-2.2,3.9-6.5,6.5-11.9,6.5c-6.7,0-10.9-3.5-10.9-9C208.4,233.8,215.2,230.7,230.4,230.5z M231.2,233.6
				l-1.1,0.1c-11.7,0.3-16.8,2.3-16.8,7.2c0,3.4,2.7,5.5,7,5.5c6.2,0,10.9-4.2,10.9-9.6V233.6z"/>
			<path class="st2" d="M272.4,230.4v16.9c0,1.8-0.9,2.3-2.1,2.3h-0.6c-1.3,0-2.2-0.5-2.2-2.3v-16.5c0-6.2-3-10.1-8.4-10.1
				c-4.7,0-8.2,2.6-10,6.5v20c0,1.8-0.9,2.3-2.1,2.3h-0.6c-1.3,0-2.2-0.5-2.2-2.3v-29.8c0-0.1,0.8-0.5,1.8-0.5c1.5,0,2.8,0.7,3,4
				v1.9c2.2-3.8,5.9-6.4,11.1-6.4C268.4,216.4,272.4,222.2,272.4,230.4z"/>
		</g>
	</g>
	<g>
		<path class="st2" d="M69.6,95.4c0-9.9,1.8-19.2,5.5-27.7c3.7-8.6,8.7-16,15.2-22.4c6.5-6.4,14.3-11.4,23.3-15
			c9-3.6,19-5.4,29.9-5.4c10.8,0,20.7,1.8,29.8,5.4c9.1,3.6,16.9,8.6,23.5,15c6.6,6.4,11.7,13.9,15.3,22.4
			c3.7,8.6,5.5,17.8,5.5,27.7s-1.8,19.2-5.5,27.7c-3.7,8.6-8.8,16-15.3,22.4c-6.6,6.4-14.4,11.4-23.5,15c-9.1,3.6-19,5.4-29.8,5.4
			c-10.9,0-20.8-1.8-29.9-5.4c-9-3.6-16.8-8.6-23.3-15c-6.5-6.4-11.6-13.9-15.2-22.4C71.4,114.6,69.6,105.4,69.6,95.4z M105.9,95.4
			c0,5.3,1,10.2,3,14.7c2,4.5,4.7,8.4,8.2,11.7s7.4,5.9,12,7.7c4.5,1.8,9.4,2.7,14.4,2.7s9.9-0.9,14.4-2.7c4.5-1.8,8.6-4.4,12.1-7.7
			c3.5-3.3,6.2-7.2,8.2-11.7c2-4.5,3-9.4,3-14.7s-1-10.2-3-14.7c-2-4.5-4.8-8.4-8.2-11.7c-3.5-3.3-7.5-5.9-12.1-7.7
			c-4.5-1.8-9.4-2.7-14.4-2.7s-9.9,0.9-14.4,2.7c-4.6,1.8-8.5,4.4-12,7.7c-3.4,3.3-6.1,7.2-8.2,11.7
			C106.9,85.2,105.9,90.1,105.9,95.4z"/>
	</g>
</g>
<g id="Circle_Safe_Area" class="st0">
	<circle class="st3" cx="67" cy="543.9" r="200"/>
	<circle class="st3" cx="539" cy="543.9" r="200"/>
	<ellipse class="st3" cx="86" cy="1106.9" rx="49" ry="49.1"/>
	<ellipse class="st3" cx="-84" cy="1106.9" rx="49" ry="49.1"/>
</g>
</svg>
