<?xml version="1.0" encoding="utf-8"?>
<!-- Generator: Adobe Illustrator 27.5.0, SVG Export Plug-In . SVG Version: 6.00 Build 0)  -->
<svg version="1.1" id="Capa_1" xmlns="http://www.w3.org/2000/svg" xmlns:xlink="http://www.w3.org/1999/xlink" x="0px" y="0px"
	 viewBox="0 0 490.6 273.8" style="enable-background:new 0 0 490.6 273.8;" xml:space="preserve">
<style type="text/css">
	.st0{enable-background:new    ;}
	.st1{fill:#FFFFFF;}
	.st2{font-family:'MyriadPro-Regular';}
	.st3{font-size:78.0023px;}
</style>
<g class="st0">
	<path class="st1" d="M128.4,7.2h20.4l5.6,4.7v26.2l-5.6,4.7h-11.4v23.7h-9V7.2z M145.5,35V15l-1.9-1.6h-6.1v23.1h6.1L145.5,35z"/>
	<path class="st1" d="M186,61.8l-5.6,4.7h-15.7l-5.6-4.7V11.9l5.6-4.7h15.7l5.6,4.7V61.8z M169.9,13.6l-1.9,1.6v43.4l1.9,1.6h5.2
		l1.9-1.6V15.1l-1.9-1.6H169.9z"/>
	<path class="st1" d="M191.9,7.2h9.8L212,48.3V7.2h8.2v59.3h-9.8L200.1,26v40.5h-8.2V7.2z"/>
	<path class="st1" d="M226.4,7.2h22.3v6.4h-13.3v19.7H247v6.4h-11.6v20.4h13.4v6.4h-22.5V7.2z"/>
	<path class="st1" d="M253.6,7.2h9.8l10.3,41.1V7.2h8.2v59.3h-9.8L261.8,26v40.5h-8.2V7.2z"/>
	<path class="st1" d="M287.9,11.9l5.6-4.7h13.9l5.6,4.7v13.3h-9V15l-1.9-1.6h-3.4l-1.9,1.6v43.5l1.9,1.6h3.4l1.9-1.6V48.4h9v13.4
		l-5.6,4.7h-13.9l-5.6-4.7V11.9z"/>
	<path class="st1" d="M318.2,7.2h9v59.3h-9V7.2z"/>
	<path class="st1" d="M342,51.2l-1.8,15.3h-9l8.6-59.3h13l8.7,59.3h-9.4l-1.8-15.3H342z M346.1,14.9l-3.5,29.9h7L346.1,14.9z"/>
</g>
<g class="st0">
	<path class="st1" d="M24.6,132.5l-6.7-44.1v44.1h-7.8V76.3h12.4l6.3,45.4l6.3-45.4h12.7v56.2h-8.1V88.4l-6.7,44.1H24.6z"/>
	<path class="st1" d="M53.8,76.3h8.6v56.2h-8.6V76.3z"/>
	<path class="st1" d="M82.8,82.2v50.3h-8.6V82.2h-8.1v-5.9h24.8v5.9H82.8z"/>
	<path class="st1" d="M119.6,128.1l-5.4,4.4H99.3l-5.4-4.4V80.7l5.4-4.4h14.9l5.4,4.4V128.1z M104.3,82.3l-1.8,1.5v41.1l1.8,1.5h4.9
		l1.8-1.5V83.8l-1.8-1.5H104.3z"/>
	<path class="st1" d="M139.8,83.7l-1.8-1.5h-3.1l-1.8,1.5v15.8l1.8,1.5h8.4l5.4,4.4v22.6l-5.4,4.4h-13.6l-5.4-4.4v-11.8h8.6v8.8
		l1.8,1.5h3.6l1.8-1.5v-16.6l-1.8-1.5h-8.4l-5.4-4.4V80.7l5.4-4.4H143l5.4,4.4v11.8h-8.6V83.7z"/>
	<path class="st1" d="M175.3,132.5v-18.4L165,76.3h9.2l5.4,27.6l5.4-27.6h9.2l-10.3,37.8v18.4H175.3z"/>
	<path class="st1" d="M211.2,76.3H231l5.4,4.4v23.4l-4.7,3.9l5.4,24.5h-8.3l-5.3-24h-3.7v24h-8.6V76.3z M227.7,101.3V83.7l-1.8-1.5
		h-6.2v20.6h6.2L227.7,101.3z"/>
	<path class="st1" d="M242.4,76.3h21.1v6.1h-12.6V101h11v6.1h-11v19.4h12.8v6.1h-21.3V76.3z"/>
	<path class="st1" d="M276.3,118l-1.7,14.5h-8.6l8.1-56.2h12.3l8.3,56.2h-8.9l-1.7-14.5H276.3z M280.3,83.6l-3.3,28.3h6.6
		L280.3,83.6z"/>
	<path class="st1" d="M298.5,132.5V76.3h8.6v50.2h11.3v6.1H298.5z"/>
	<path class="st1" d="M322.3,76.3h8.6v56.2h-8.6V76.3z"/>
	<path class="st1" d="M362.1,80.7v47.4l-5.4,4.4h-20.1V76.3h20.1L362.1,80.7z M353.6,124.9V83.8l-1.8-1.5h-6.5v44.1h6.5L353.6,124.9
		z"/>
	<path class="st1" d="M375.3,118l-1.7,14.5h-8.6l8.1-56.2h12.3l8.3,56.2h-8.9l-1.7-14.5H375.3z M379.2,83.6l-3.3,28.3h6.6
		L379.2,83.6z"/>
	<path class="st1" d="M422.9,80.7v47.4l-5.4,4.4h-20.1V76.3h20.1L422.9,80.7z M414.4,124.9V83.8l-1.8-1.5h-6.5v44.1h6.5L414.4,124.9
		z"/>
	<path class="st1" d="M428.6,76.3h21.1v6.1h-12.6V101h11v6.1h-11v19.4h12.8v6.1h-21.3V76.3z"/>
	<path class="st1" d="M468.5,83.7l-1.8-1.5h-3.1l-1.8,1.5v15.8l1.8,1.5h8.4l5.4,4.4v22.6l-5.4,4.4h-13.6l-5.4-4.4v-11.8h8.6v8.8
		l1.8,1.5h3.6l1.8-1.5v-16.6L467,107h-8.4l-5.4-4.4V80.7l5.4-4.4h13.1l5.4,4.4v11.8h-8.6V83.7z"/>
</g>
<text transform="matrix(1.2051 0 0 1 18.4861 338.7943)" class="st2 st3"> </text>
<g class="st0">
	<path class="st1" d="M41,152.9h-18v28.2h16.1v8.9H23.1v36.2H10.6V144H41V152.9z"/>
	<path class="st1" d="M47.2,144h12.5v82.1H47.2V144z"/>
	<path class="st1" d="M68.5,144h28.9l7.8,6.5v34.1l-6.9,5.7l7.8,35.7H94l-7.7-35H81v35H68.5V144z M92.7,180.5v-25.7l-2.6-2.2H81v30
		h9.1L92.7,180.5z"/>
	<path class="st1" d="M135.4,226.1l-9.8-64.4v64.4h-11.3V144h18.1l9.2,66.3l9.2-66.3h18.5v82.1h-11.8v-64.4l-9.8,64.4H135.4z"/>
	<path class="st1" d="M190.1,204.9l-2.5,21.2h-12.5l11.8-82.1h18l12.1,82.1h-13l-2.5-21.2H190.1z M195.8,154.7l-4.8,41.4h9.6
		L195.8,154.7z"/>
	<path class="st1" d="M279.6,150.5v69.1l-7.8,6.5h-29.3V144h29.3L279.6,150.5z M267.1,215.1v-60l-2.6-2.2H255v64.4h9.5L267.1,215.1z
		"/>
	<path class="st1" d="M288.1,144h12.5v82.1h-12.5V144z"/>
	<path class="st1" d="M309,150.5l7.8-6.5h20.4l7.8,6.5v17.4h-12.5V155l-2.6-2.2h-5.9l-2.6,2.2v60l2.6,2.2h5.9l2.6-2.2v-22.5h-6.2
		v-9.3h18.7v36.3l-7.8,6.5h-20.4l-7.8-6.5V150.5z"/>
	<path class="st1" d="M353.3,144h12.5v82.1h-12.5V144z"/>
	<path class="st1" d="M395.8,152.7v73.4h-12.5v-73.4h-11.8V144h36.2v8.6H395.8z"/>
	<path class="st1" d="M418.7,204.9l-2.5,21.2h-12.5l11.8-82.1h18l12.1,82.1h-13l-2.5-21.2H418.7z M424.5,154.7l-4.8,41.4h9.6
		L424.5,154.7z"/>
	<path class="st1" d="M451.4,226.1V144h12.5v73.2h16.5v8.9H451.4z"/>
</g>
<text transform="matrix(1.2051 0 0 1 18.5486 432.3997)" class="st2 st3"> </text>
<g class="st0">
	<path class="st1" d="M75.2,268.7l-3.7-24.4v24.4h-4.3v-31.2H74l3.5,25.2l3.5-25.2h7v31.2h-4.5v-24.4l-3.7,24.4H75.2z"/>
	<path class="st1" d="M95.8,260.7l-0.9,8h-4.7l4.5-31.2h6.8l4.6,31.2h-4.9l-0.9-8H95.8z M98,241.6l-1.8,15.7h3.7L98,241.6z"/>
	<path class="st1" d="M108.1,237.5h11l3,2.5v13l-2.6,2.2l3,13.6h-4.6l-2.9-13.3h-2v13.3h-4.7V237.5z M117.3,251.4v-9.8l-1-0.8h-3.5
		v11.4h3.5L117.3,251.4z"/>
	<path class="st1" d="M125.1,240l3-2.5h7.3l3,2.5v7h-4.7v-5.4l-1-0.8h-1.8l-1,0.8v22.9l1,0.8h1.8l1-0.8v-5.3h4.7v7.1l-3,2.5H128
		l-3-2.5V240z"/>
	<path class="st1" d="M155.1,266.2l-3,2.5h-8.3l-3-2.5V240l3-2.5h8.3l3,2.5V266.2z M146.6,240.9l-1,0.8v22.8l1,0.8h2.7l1-0.8v-22.8
		l-1-0.8H146.6z"/>
	<path class="st1" d="M166.1,268.7v-31.2h4.7v27.8h6.3v3.4H166.1z"/>
	<path class="st1" d="M179.2,237.5h11.7v3.4h-7v10.3h6.1v3.4H184v10.7h7.1v3.4h-11.8V237.5z"/>
	<path class="st1" d="M193.4,240l3-2.5h7.8l3,2.5v6.6h-4.7v-4.9l-1-0.8h-2.2l-1,0.8v22.8l1,0.8h2.2l1-0.8V256H200v-3.5h7.1v13.8
		l-3,2.5h-7.8l-3-2.5V240z"/>
	<path class="st1" d="M214.3,260.7l-0.9,8h-4.7l4.5-31.2h6.8l4.6,31.2h-4.9l-0.9-8H214.3z M216.5,241.6l-1.8,15.7h3.7L216.5,241.6z"
		/>
	<path class="st1" d="M226.6,268.7v-31.2h4.7v27.8h6.3v3.4H226.6z"/>
	<path class="st1" d="M251.2,268.7v-10.2l-5.7-21h5.1l3,15.3l3-15.3h5.1l-5.7,21v10.2H251.2z"/>
	<path class="st1" d="M285.9,268.7l-2.6-26.2l-2.6,26.2h-6.6l-4.8-31.2h4.9l2.8,26.9l3.3-26.9h5.9l3.3,26.9l2.8-26.9h4.6l-4.8,31.2
		H285.9z"/>
	<path class="st1" d="M313,266.2l-3,2.5h-8.3l-3-2.5V240l3-2.5h8.3l3,2.5V266.2z M304.5,240.9l-1,0.8v22.8l1,0.8h2.7l1-0.8v-22.8
		l-1-0.8H304.5z"/>
	<path class="st1" d="M316.1,237.5h11l3,2.5v13l-2.6,2.2l3,13.6h-4.6l-2.9-13.3h-2v13.3h-4.7V237.5z M325.3,251.4v-9.8l-1-0.8h-3.5
		v11.4h3.5L325.3,251.4z"/>
	<path class="st1" d="M338.1,261.3v7.4h-4.7v-31.2h4.7v16.6l5.6-16.6h4.8l-5.1,13.8l5.4,17.3h-4.9l-3.5-12.8L338.1,261.3z"/>
	<path class="st1" d="M362.4,240.9h-6.8v10.7h6.1v3.4h-6.1v13.7h-4.7v-31.2h11.6V240.9z"/>
	<path class="st1" d="M364.6,268.7v-31.2h4.7v27.8h6.3v3.4H364.6z"/>
	<path class="st1" d="M391.8,266.2l-3,2.5h-8.3l-3-2.5V240l3-2.5h8.3l3,2.5V266.2z M383.4,240.9l-1,0.8v22.8l1,0.8h2.7l1-0.8v-22.8
		l-1-0.8H383.4z"/>
	<path class="st1" d="M410,268.7l-2.6-26.2l-2.6,26.2h-6.6l-4.8-31.2h4.9l2.8,26.9l3.3-26.9h5.9l3.3,26.9l2.8-26.9h4.6l-4.8,31.2
		H410z"/>
</g>
</svg>
